<svg width="800" height="800" viewBox="0 0 800 800" fill="none" xmlns="http://www.w3.org/2000/svg">
<g id="profile vector art">
<g id="Group 4">
<path id="mid 1" d="M654.7 407.35C654.7 354.08 638.963 301.997 609.464 257.64C579.965 213.283 538.019 178.63 488.892 158.031L486.801 163.017C534.945 183.204 576.052 217.165 604.961 260.634C633.871 304.104 649.293 355.145 649.293 407.35H654.7Z" fill="#FFA84A"/>
<path id="large 2" d="M378.188 726.489C294.437 725.028 214.603 690.761 155.85 631.057C97.0974 571.354 64.1173 490.98 64.0003 407.216L79.9888 407.193C80.0999 486.769 111.431 563.124 167.246 619.843C223.061 676.562 298.904 709.115 378.467 710.503L378.188 726.489Z" fill="#FFA84A"/>
<path id="mid 2" d="M365.307 677.029C319.882 673.821 276.004 659.191 237.744 634.497C199.483 609.803 168.08 575.844 146.449 535.772L160.624 528.12C180.967 565.805 210.498 597.74 246.479 620.963C282.46 644.186 323.724 657.944 366.441 660.96L365.307 677.029Z" fill="#6E6E6E"/>
<path id="large 3" d="M741.063 443.772C736.168 490.728 722.073 536.26 699.581 577.768C677.09 619.277 646.643 655.949 609.979 685.69C573.316 715.432 531.153 737.661 485.898 751.108C440.643 764.555 393.183 768.957 346.228 764.063L346.973 756.911C392.99 761.708 439.501 757.394 483.85 744.216C528.2 731.038 569.519 709.254 605.45 680.107C641.38 650.96 671.218 615.021 693.26 574.343C715.301 533.665 729.115 489.044 733.911 443.027L741.063 443.772Z" fill="#FFA84A"/>
<path id="Vector 2" d="M394 793L394 6.99999" stroke="#6E6E6E"/>
<g id="long lines top">
<path id="line2" d="M473.667 340.659L742.819 87.0001" stroke="#6E6E6E"/>
<path id="line1" d="M404 360.898L647.012 131.874L662.824 146.775" stroke="#FFA84A"/>
</g>
<g id="long lines bottom">
<path id="Vector 5" d="M24 766.068L317.197 489.007" stroke="#FFA84A"/>
<path id="Rectangle 2" d="M316.8 504.682L73.7875 733.706" stroke="#6E6E6E"/>
</g>
<g id="small lines list">
<path id="Vector 6" d="M24 729.366V752.78" stroke="#FFA84A"/>
<path id="Vector 7" d="M30.6252 722.341V745.756" stroke="#FFA84A"/>
<path id="Vector 8" d="M38.079 716.098V739.512" stroke="#FFA84A"/>
<path id="Vector 9" d="M44.7041 709.073V732.488" stroke="#FFA84A"/>
<path id="Vector 10" d="M52.1575 702.829V726.244" stroke="#FFA84A"/>
<path id="Vector 11" d="M58.7828 695.805V719.22" stroke="#FFA84A"/>
<path id="Vector 12" d="M66.236 689.561V712.976" stroke="#FFA84A"/>
<path id="Vector 13" d="M72.8612 682.536V705.951" stroke="#FFA84A"/>
<path id="Vector 14" d="M80.3147 676.293V699.707" stroke="#FFA84A"/>
<path id="Vector 15" d="M86.9401 669.268V692.683" stroke="#FFA84A"/>
<path id="Vector 17" d="M101.019 656V679.415" stroke="#FFA84A"/>
<path id="Vector 20" d="M94.3934 663.024V686.439" stroke="#FFA84A"/>
</g>
<g id="small lines list_2">
<path id="Vector 6_2" d="M644 192.878V216.292" stroke="#6E6E6E"/>
<path id="Vector 7_2" d="M650.625 185.854V209.268" stroke="#6E6E6E"/>
<path id="Vector 8_2" d="M658.079 179.61V203.025" stroke="#6E6E6E"/>
<path id="Vector 9_2" d="M664.704 172.585V196" stroke="#6E6E6E"/>
<path id="Vector 10_2" d="M672.157 166.341V189.756" stroke="#6E6E6E"/>
<path id="Vector 11_2" d="M678.783 159.317V182.732" stroke="#6E6E6E"/>
<path id="Vector 12_2" d="M686.236 153.073V176.488" stroke="#6E6E6E"/>
<path id="Vector 13_2" d="M692.861 146.049V169.463" stroke="#6E6E6E"/>
<path id="Vector 14_2" d="M700.315 139.805V163.219" stroke="#6E6E6E"/>
<path id="Vector 15_2" d="M706.94 132.781V156.195" stroke="#6E6E6E"/>
<path id="Vector 16" d="M728.472 113.268V136.683" stroke="#6E6E6E"/>
<path id="Vector 17_2" d="M721.019 119.512V142.927" stroke="#6E6E6E"/>
<path id="Vector 18" d="M735.097 106.244V129.659" stroke="#6E6E6E"/>
<path id="Vector 19" d="M742.551 100V123.415" stroke="#6E6E6E"/>
<path id="Vector 20_2" d="M714.393 126.537V149.952" stroke="#6E6E6E"/>
</g>
<g id="squares list">
<rect id="rect4" x="0.706384" width="23.1191" height="23.1191" transform="matrix(0.706384 -0.707829 0.706384 0.707829 655.207 121.079)" stroke="#FFA84A"/>
<rect id="rect3" x="0.706384" width="23.1191" height="23.1191" transform="matrix(0.706384 -0.707829 0.706384 0.707829 680.333 98.4153)" stroke="#FFA84A"/>
<rect id="rect2" x="0.706384" width="23.1191" height="23.1191" transform="matrix(0.706384 -0.707829 0.706384 0.707829 704.928 75.2363)" stroke="#FFA84A"/>
<rect id="rect1" x="0.706384" width="23.1191" height="23.1191" transform="matrix(0.706384 -0.707829 0.706384 0.707829 730.053 52.5723)" stroke="#FFA84A"/>
</g>
<g id="dots list 1">
<circle id="dot4" cx="737.501" cy="423.503" r="5.50101" fill="#FFA84A"/>
<circle id="dot3" cx="710.501" cy="423.501" r="5.50101" fill="#6E6E6E"/>
<circle id="dot2" cx="683.501" cy="423.501" r="5.50101" fill="#6E6E6E"/>
<circle id="dot1" cx="654.501" cy="423.501" r="5.50101" fill="#6E6E6E"/>
</g>
<g id="dots list 2">
<circle id="dot4_2" cx="389.669" cy="719.682" r="5.51887" transform="rotate(90 389.669 719.682)" stroke="#FFA84A" stroke-width="0.3"/>
<circle id="dot5" cx="389.669" cy="747.02" r="5.51887" transform="rotate(90 389.669 747.02)" stroke="#FFA84A" stroke-width="0.3"/>
<circle id="dot3_2" cx="389.669" cy="692.344" r="5.66887" transform="rotate(90 389.669 692.344)" fill="#6E6E6E"/>
<circle id="dot2_2" cx="389.669" cy="665.007" r="5.66887" transform="rotate(90 389.669 665.007)" fill="#6E6E6E"/>
<circle id="dot1_2" cx="389.669" cy="637.669" r="5.66887" transform="rotate(90 389.669 637.669)" fill="#FFA84A"/>
</g>
<path id="large 1" d="M709.769 407C709.769 363.708 700.978 320.867 683.93 281.073C666.881 241.279 641.93 205.362 610.588 175.498C579.245 145.633 542.166 122.444 501.596 107.336C461.025 92.2273 417.81 85.5143 374.568 87.6035L376.42 125.931C414.473 124.093 452.502 130 488.204 143.295C523.906 156.591 556.536 176.997 584.117 203.278C611.698 229.558 633.655 261.166 648.658 296.184C663.661 331.203 671.397 368.903 671.397 407H709.769Z" fill="#6E6E6E"/>
</g>
</g>
</svg>
