<svg width="20" height="15" viewBox="0 0 20 15" fill="none" xmlns="http://www.w3.org/2000/svg">
<path d="M14.1221 0.150391C17.2888 0.202454 19.8494 2.85059 19.8496 6.11133C19.8496 8.73786 18.2502 10.9549 15.9404 11.7412L15.7158 11.8174L15.8818 11.9883L18.6787 14.8496H14.7148L9.2002 9.20605L10.8936 9.20312V9.20215C11.1549 9.20316 11.4004 9.17591 11.6299 9.12305H11.6318C12.967 8.79842 13.958 7.5705 13.958 6.11133C13.9578 4.40655 12.6041 3.01664 10.9297 3.0166L7.46973 3.01562H7.11328L7.3623 3.27051L7.70508 3.62109H3.74805L0.356445 0.150391H14.1221ZM7.70508 12.373L5.28516 14.8496H1.3291L3.74902 12.373H7.70508ZM3.58496 4.5459C4.04433 4.54603 4.44905 4.79436 4.67676 5.16992L4.7207 5.24219H4.80469L9.29004 5.24414L10.1777 6.15039L5.1709 6.14844H5.02148V6.29785L5.01758 6.91992L5.0166 7.07031H5.76562C6.69111 7.07031 7.48348 7.67547 7.7793 8.52441L7.83203 8.69727L7.83301 8.70215C7.83336 8.70344 7.83419 8.70602 7.83496 8.70898C7.83655 8.71511 7.83889 8.72481 7.8418 8.7373C7.84776 8.76291 7.85578 8.80132 7.86426 8.85059C7.88131 8.94979 7.8992 9.09266 7.90234 9.26367C7.9244 10.4708 6.94433 11.4512 5.76562 11.4512C5.39725 11.4512 5.05063 11.3559 4.74805 11.1875L4.6748 11.1465L4.60254 11.1875C4.29997 11.3559 3.95325 11.4511 3.58496 11.4512C2.40874 11.4512 1.44727 10.4727 1.44727 9.26074C1.4474 8.32524 2.02108 7.52774 2.82422 7.21387L3.08398 7.1123L2.85645 6.95117C2.52049 6.71352 2.29897 6.31625 2.29883 5.86523C2.29883 5.13419 2.87877 4.5459 3.58496 4.5459ZM3.58496 7.64258C2.70675 7.64258 1.9992 8.37068 1.99902 9.26074C1.99902 10.151 2.70664 10.8799 3.58496 10.8799C3.72382 10.8799 3.85867 10.8615 3.9873 10.8271L4.20215 10.7695L4.06934 10.5918C3.79329 10.223 3.62891 9.76168 3.62891 9.26074C3.62891 9.24277 3.63044 9.22489 3.63086 9.20703H4.18164C4.18106 9.22487 4.17969 9.24277 4.17969 9.26074C4.17969 9.66134 4.32355 10.0294 4.56055 10.3125L4.6748 10.4492L4.79004 10.3125C5.02698 10.0294 5.16992 9.66134 5.16992 9.26074C5.16975 8.37081 4.46301 7.64278 3.58496 7.64258ZM5.24609 7.88477C5.5431 8.26072 5.7216 8.73922 5.72168 9.26074C5.72168 9.76161 5.55723 10.223 5.28125 10.5918L5.14844 10.7695L5.3623 10.8271C5.49114 10.8617 5.62655 10.8799 5.76562 10.8799C6.64394 10.8799 7.35156 10.151 7.35156 9.26074C7.3514 8.4221 6.72318 7.72693 5.91602 7.64941V7.64258L5.7666 7.6416H5.05469L5.24609 7.88477ZM3.58496 5.11133C3.17326 5.11133 2.84473 5.45247 2.84473 5.86523C2.84495 6.27781 3.1734 6.61816 3.58496 6.61816C3.99635 6.61797 4.32399 6.27769 4.32422 5.86523C4.32422 5.45259 3.99649 5.11153 3.58496 5.11133Z" stroke="#D4D4D4" stroke-width="0.3"/>
</svg>
