<svg width="24" height="24" viewBox="0 0 24 24" fill="none" xmlns="http://www.w3.org/2000/svg">
<path d="M8.3824 18.5036C8.3824 18.5917 8.28105 18.6622 8.15327 18.6622C8.00786 18.6755 7.90651 18.605 7.90651 18.5036C7.90651 18.4155 8.00786 18.345 8.13564 18.345C8.26783 18.3318 8.3824 18.4023 8.3824 18.5036ZM7.01203 18.3053C6.98118 18.3935 7.06931 18.4948 7.2015 18.5212C7.31606 18.5653 7.44825 18.5212 7.47469 18.4331C7.50113 18.345 7.41741 18.2436 7.28522 18.204C7.17065 18.1731 7.04287 18.2172 7.01203 18.3053ZM8.95963 18.2304C8.83184 18.2613 8.74372 18.345 8.75694 18.4463C8.77016 18.5345 8.88472 18.5917 9.01691 18.5609C9.14469 18.5301 9.23282 18.4463 9.2196 18.3582C9.20638 18.2745 9.08741 18.2172 8.95963 18.2304ZM11.859 1.34534C5.74741 1.34534 1.07228 5.98521 1.07228 12.0968C1.07228 16.9834 4.14791 21.165 8.54103 22.6368C9.10504 22.7381 9.30332 22.39 9.30332 22.1036C9.30332 21.8304 9.2901 20.3234 9.2901 19.3981C9.2901 19.3981 6.20567 20.0591 5.55793 18.085C5.55793 18.085 5.05561 16.8028 4.33297 16.4723C4.33297 16.4723 3.32392 15.7805 4.40347 15.7937C4.40347 15.7937 5.50065 15.8818 6.10432 16.9306C7.06931 18.6314 8.68644 18.1423 9.31654 17.8515C9.41789 17.1465 9.7043 16.6574 10.0216 16.3665C7.55841 16.0934 5.07324 15.7364 5.07324 11.4975C5.07324 10.2858 5.40812 9.67772 6.11313 8.90221C5.99857 8.6158 5.62403 7.4349 6.2277 5.9103C7.14862 5.62389 9.26807 7.10002 9.26807 7.10002C10.1493 6.85326 11.0967 6.72548 12.0353 6.72548C12.9738 6.72548 13.9212 6.85326 14.8024 7.10002C14.8024 7.10002 16.9219 5.61949 17.8428 5.9103C18.4465 7.4393 18.0719 8.6158 17.9574 8.90221C18.6624 9.68213 19.0942 10.2902 19.0942 11.4975C19.0942 15.7497 16.4989 16.0889 14.0357 16.3665C14.4411 16.7146 14.7848 17.3756 14.7848 18.4111C14.7848 19.896 14.7716 21.7335 14.7716 22.0948C14.7716 22.3812 14.9743 22.7293 15.5339 22.628C19.9402 21.165 22.9277 16.9834 22.9277 12.0968C22.9277 5.98521 17.9706 1.34534 11.859 1.34534ZM5.35524 16.5428C5.29796 16.5869 5.31118 16.6882 5.38609 16.7719C5.45659 16.8424 5.55793 16.8733 5.61522 16.816C5.6725 16.7719 5.65928 16.6706 5.58437 16.5869C5.51387 16.5164 5.41252 16.4855 5.35524 16.5428ZM4.87936 16.1859C4.84851 16.2432 4.89258 16.3137 4.9807 16.3577C5.05121 16.4018 5.13933 16.3886 5.17018 16.3269C5.20102 16.2696 5.15696 16.1991 5.06883 16.155C4.9807 16.1286 4.9102 16.1418 4.87936 16.1859ZM6.30701 17.7545C6.23651 17.8118 6.26295 17.944 6.36429 18.0277C6.46564 18.1291 6.59342 18.1423 6.65071 18.0718C6.70799 18.0145 6.68155 17.8823 6.59342 17.7986C6.49648 17.6973 6.36429 17.684 6.30701 17.7545ZM5.80469 17.1068C5.73419 17.1509 5.73419 17.2654 5.80469 17.3668C5.87519 17.4681 5.99416 17.5122 6.05144 17.4681C6.12195 17.4108 6.12195 17.2963 6.05144 17.1949C5.98976 17.0936 5.87519 17.0495 5.80469 17.1068Z" fill="#D4D4D4"/>
</svg>
