<svg width="48" height="48" viewBox="0 0 48 48" fill="none" xmlns="http://www.w3.org/2000/svg">
<path d="M23.7422 4.15039C34.8468 4.15052 43.8496 12.7946 43.8496 24.1816C43.8496 33.2915 38.4224 41.0772 30.4277 43.8037C29.9585 43.888 29.6651 43.7788 29.4883 43.6133C29.3049 43.4415 29.2227 43.1872 29.2227 42.9492C29.2227 42.6106 29.2283 41.5792 29.2344 40.2832C29.2404 38.9877 29.2471 37.4282 29.2471 36.0342C29.2471 34.2556 28.7268 33.0367 28.0527 32.3086C30.2038 32.0563 32.4254 31.7371 34.1309 30.5469C35.9344 29.2881 37.1338 27.0792 37.1338 23.0566C37.1338 21.9046 36.9323 21.0304 36.5625 20.2559C36.2051 19.5074 35.6929 18.8603 35.0723 18.1523C35.3174 17.474 35.9057 15.2987 34.834 12.5146L34.8076 12.4482L34.7402 12.4258L34.5586 12.3799C34.1235 12.2972 33.6009 12.3813 33.0693 12.5439C32.4558 12.7317 31.8033 13.0332 31.209 13.3486C30.6139 13.6645 30.072 13.9965 29.6797 14.25C29.4834 14.3768 29.3242 14.484 29.2139 14.5596C29.1664 14.5921 29.128 14.6188 29.0996 14.6387C27.4929 14.1847 25.7708 13.9492 24.0645 13.9492C22.3578 13.9492 20.6353 14.1845 19.0283 14.6387C19 14.6189 18.962 14.5926 18.915 14.5605C18.8048 14.4852 18.6453 14.3783 18.4492 14.252C18.0569 13.9991 17.515 13.6669 16.9199 13.3516C16.3256 13.0367 15.673 12.7359 15.0596 12.5479C14.452 12.3616 13.8563 12.2769 13.3896 12.4258L13.3213 12.4482L13.2959 12.5146C12.2247 15.2893 12.8103 17.4711 13.0557 18.1514C12.4348 18.8585 11.9664 19.5055 11.6523 20.2559C11.3282 21.0306 11.1729 21.9055 11.1729 23.0566C11.1729 27.0645 12.3196 29.2762 14.0723 30.54C15.732 31.7368 17.91 32.0602 20.0596 32.3096C19.5546 32.8799 19.1282 33.7323 18.9531 34.8799C18.3776 35.1425 17.4161 35.4659 16.3926 35.3721C15.337 35.2752 14.1997 34.7352 13.3408 33.1826V33.1816L13.2305 32.9961C12.6686 32.0954 11.9215 31.5923 11.3008 31.3135C10.97 31.165 10.6744 31.0793 10.4609 31.0312C10.3542 31.0072 10.2675 30.9923 10.207 30.9834C10.177 30.979 10.1533 30.9765 10.1367 30.9746C10.1285 30.9737 10.1218 30.9731 10.1172 30.9727C10.1149 30.9724 10.1127 30.9718 10.1113 30.9717H10.1094L10.0986 30.9707C9.84511 30.9675 9.64433 30.9854 9.48926 31.0225C9.33609 31.0591 9.21203 31.1184 9.13086 31.21C9.04427 31.3077 9.0217 31.4247 9.03906 31.5361C9.05558 31.6415 9.10762 31.7431 9.16699 31.832C9.28614 32.0104 9.46747 32.1831 9.6123 32.3066C9.68603 32.3695 9.75341 32.4222 9.80176 32.459C9.82579 32.4773 9.84566 32.492 9.85938 32.502C9.86611 32.5069 9.87128 32.511 9.875 32.5137C9.87686 32.515 9.87885 32.5159 9.87988 32.5166L9.88086 32.5176H9.88184L9.89258 32.5254L9.9043 32.5303C10.5204 32.8192 11.0611 33.5396 11.4551 34.2168C11.6494 34.5509 11.8038 34.8666 11.9092 35.0986C11.9618 35.2144 12.0022 35.3094 12.0293 35.375C12.0428 35.4076 12.0528 35.4331 12.0596 35.4502C12.0623 35.4571 12.0648 35.4627 12.0664 35.4668V35.4678C12.6872 37.4081 14.4761 38.0384 16.0547 38.1934C16.8476 38.2712 17.6011 38.231 18.1553 38.1719C18.4325 38.1423 18.661 38.1082 18.8203 38.0811C18.8455 38.0768 18.869 38.0713 18.8906 38.0674C18.8914 38.91 18.8967 39.9645 18.9023 40.8857C18.9084 41.8748 18.9141 42.71 18.9141 42.9658C18.914 43.2046 18.8335 43.4585 18.6514 43.6299C18.4752 43.7956 18.1807 43.9055 17.7041 43.8193C9.73424 41.0741 4.15039 33.2875 4.15039 24.1816C4.1504 12.7894 12.6425 4.15039 23.7422 4.15039ZM16.9424 36.0596C17.0334 36.0502 17.1115 36.0716 17.1621 36.1045C17.2114 36.1366 17.2295 36.1738 17.2295 36.208C17.2295 36.2301 17.2169 36.2635 17.1699 36.2969C17.1346 36.3219 17.0843 36.3428 17.0234 36.3516L16.96 36.3555L16.9453 36.3564C16.8388 36.3663 16.7625 36.3436 16.7178 36.3135C16.6759 36.2852 16.6582 36.2491 16.6582 36.208C16.6582 36.1859 16.6698 36.1525 16.7168 36.1191C16.7638 36.0857 16.8378 36.0605 16.9277 36.0605H16.9355L16.9424 36.0596ZM18.46 35.8438C18.5475 35.836 18.6277 35.8524 18.6846 35.8809C18.7152 35.8962 18.7345 35.9121 18.7461 35.9258L18.7627 35.958C18.7657 35.9818 18.7581 36.0168 18.7158 36.0596C18.6831 36.0926 18.6341 36.1245 18.5713 36.1484L18.5039 36.1699C18.4127 36.1914 18.3352 36.1803 18.2842 36.1562C18.2584 36.1441 18.2415 36.1298 18.2305 36.1162L18.2129 36.0791C18.2049 36.0038 18.267 35.8951 18.46 35.8438ZM15.1162 35.7979C15.1773 35.7752 15.2544 35.7694 15.3281 35.7891C15.424 35.8188 15.4951 35.87 15.5361 35.9209C15.5774 35.9721 15.5806 36.0108 15.5742 36.0332C15.5678 36.0551 15.542 36.0888 15.4805 36.1094C15.4208 36.1293 15.344 36.1298 15.2725 36.1016L15.2607 36.0967L15.248 36.0938L15.1836 36.0752C15.1233 36.0526 15.0766 36.0191 15.0469 35.9844C15.0071 35.9377 15.0063 35.9026 15.0127 35.8838C15.0224 35.8558 15.0533 35.8212 15.1162 35.7979ZM13.7949 34.8711C13.8379 34.8772 13.8909 34.8975 13.9434 34.9385L13.9951 34.9873L14 34.9922C14.0589 35.0496 14.0971 35.1239 14.1104 35.1895C14.1245 35.2602 14.106 35.2895 14.1025 35.293L14.0967 35.2979L14.0918 35.3047C14.0799 35.3194 14.0537 35.3359 13.999 35.3281C13.9429 35.3202 13.867 35.2858 13.793 35.21L13.7881 35.2051L13.7822 35.2002C13.7132 35.1417 13.6741 35.0691 13.6621 35.0098C13.6499 34.9488 13.6682 34.9241 13.6768 34.917L13.6885 34.9072L13.6982 34.8945C13.7095 34.8805 13.7376 34.8631 13.7949 34.8711ZM12.8408 33.6973C12.8872 33.7147 12.9421 33.758 12.9834 33.8271V33.8281L12.9883 33.8359C13.0949 33.9932 13.0607 34.1085 13.0186 34.1465C13.0107 34.1478 12.9904 34.148 12.9531 34.1328C12.8987 34.1106 12.8342 34.0624 12.7852 33.9902C12.7346 33.9157 12.7149 33.8429 12.7148 33.79C12.7148 33.7373 12.7326 33.7181 12.7422 33.7119L12.75 33.707L12.7568 33.7012C12.7702 33.69 12.7956 33.6803 12.8408 33.6973ZM12.0049 32.625C12.0464 32.6346 12.0993 32.6643 12.1475 32.7129C12.1981 32.7722 12.223 32.83 12.2285 32.8721C12.2312 32.8931 12.2288 32.907 12.2266 32.9141C12.2248 32.9195 12.2227 32.921 12.2217 32.9219L12.2139 32.9287L12.207 32.9355C12.201 32.9417 12.1871 32.9516 12.1475 32.9424C12.1058 32.9326 12.0531 32.9024 12.0049 32.8535C11.9548 32.7946 11.9303 32.7371 11.9248 32.6953C11.9221 32.6743 11.9245 32.6604 11.9268 32.6533C11.9286 32.6478 11.9306 32.6463 11.9316 32.6455L11.9395 32.6387L11.9463 32.6318C11.9523 32.6257 11.9657 32.616 12.0049 32.625ZM11.2559 31.9385C11.3125 31.9693 11.3451 32.003 11.3594 32.0273C11.3663 32.0393 11.368 32.0464 11.3682 32.0488C11.3683 32.0501 11.3678 32.0505 11.3672 32.0518L11.3652 32.0566C11.3616 32.0639 11.3529 32.0733 11.3301 32.0771C11.3056 32.0811 11.2698 32.0764 11.2344 32.0537L11.2285 32.0498L11.2217 32.0469L11.1475 31.9971C11.1287 31.9807 11.116 31.9651 11.1084 31.9521C11.1045 31.9455 11.1027 31.9402 11.1016 31.9365C11.107 31.9336 11.115 31.929 11.1279 31.9268C11.156 31.922 11.1989 31.9227 11.2559 31.9385Z" stroke="#D4D4D4" stroke-width="0.3"/>
</svg>
