<svg width="48" height="48" viewBox="0 0 48 48" fill="none" xmlns="http://www.w3.org/2000/svg">
<path d="M24 4.15039C34.9628 4.15039 43.8496 13.0372 43.8496 24C43.8496 34.9629 34.9629 43.8496 24 43.8496C13.0371 43.8496 4.15039 34.9628 4.15039 24C4.15044 13.0372 13.0372 4.15044 24 4.15039ZM12.3262 35.3916H17.6396V20.0303H12.3262V35.3916ZM29.751 19.6836C27.9217 19.6836 26.4716 20.4013 25.4092 21.8262V20.0303H20.0889L20.0957 20.1875C20.1389 21.1376 20.1391 26.152 20.0957 35.2402L20.0947 35.3916H25.4092V26.8213C25.4092 26.2792 25.4592 25.8989 25.5488 25.665C25.756 25.1812 26.0668 24.77 26.4824 24.4307C26.886 24.1013 27.3865 23.9326 27.9932 23.9326C28.7948 23.9327 29.375 24.2016 29.7607 24.7236C30.1528 25.2542 30.3604 26.0688 30.3604 27.1904V35.3916H35.6738V26.6045C35.6738 24.3551 35.1404 22.6269 34.0498 21.4463C32.9618 20.2691 31.5235 19.6836 29.751 19.6836ZM17.9648 15.5332C17.9495 14.7444 17.6753 14.0838 17.1387 13.5625C16.5991 13.0385 15.886 12.7822 15.0156 12.7822C14.1452 12.7822 13.4228 13.0387 12.8623 13.5605C12.3026 14.082 12.0225 14.7443 12.0225 15.5361C12.0225 16.3134 12.2954 16.9717 12.8389 17.5C13.3847 18.0302 14.0932 18.291 14.9502 18.291H14.9727C15.7466 18.291 16.3997 18.0917 16.9219 17.6865L17.1377 17.5C17.6886 16.9718 17.9648 16.314 17.9648 15.5361V15.5332Z" stroke="#D4D4D4" stroke-width="0.3"/>
</svg>
