<svg width="48" height="48" viewBox="0 0 48 48" fill="none" xmlns="http://www.w3.org/2000/svg">
<path d="M24.0499 45.4372C35.8199 45.4372 45.3613 35.8958 45.3613 24.1258C45.3613 12.3559 35.8199 2.81445 24.0499 2.81445C12.28 2.81445 2.73853 12.3559 2.73853 24.1258C2.73853 35.8958 12.28 45.4372 24.0499 45.4372Z" stroke="#D4D4D4" stroke-width="0.3" stroke-miterlimit="1.5" stroke-linecap="round" stroke-linejoin="round"/>
<mask id="path-2-inside-1_422_1048" fill="white">
<path fill-rule="evenodd" clip-rule="evenodd" d="M23.2673 22.9663L29.9281 15.076L29.3379 14.5778L30.3568 13.3708L32.8633 15.4868L31.8444 16.6937L31.2542 16.1955L25.5868 22.9089H31.5048L37.6802 14.5946L38.9017 15.385L38.0701 16.595L38.2933 16.9137C38.1355 17.3475 37.8953 18.0277 37.6185 18.8792L37.5706 19.0265L37.5707 19.0267C37.3813 19.6139 37.1765 20.277 36.9701 20.9932L36.9277 21.1404L36.9278 21.1406C36.7503 21.7624 36.5723 22.4223 36.4029 23.1056L36.3665 23.2526L36.3667 23.2528C36.2103 23.8914 36.0618 24.5494 35.9285 25.215L35.8991 25.3616L35.8993 25.3619C35.8778 25.4711 35.8568 25.5805 35.8362 25.69C35.7178 26.3192 35.4979 26.9078 35.2003 27.4522L35.0891 27.6554H35.0844C34.6211 28.4352 33.9979 29.119 33.2925 29.6941L33.1847 29.782H33.0745L33.0973 29.8489C31.4644 31.1088 29.4467 31.7977 27.9935 31.8045L24.2334 31.8477L24.2072 31.8739L23.0792 31.861L21.9512 31.8739L21.9251 31.8477L19.3752 31.8176L18.9267 32.9691L14.3766 37.8526L11.4097 35.348L14.7771 30.9381C14.2904 30.6469 13.7878 30.2565 13.3876 29.7959L13.3939 29.782H13.3715L13.2542 29.6366C12.8275 29.1075 12.4583 28.4561 12.1821 27.6554H12.1767L12.0923 27.3788C11.9361 26.8673 11.8162 26.2976 11.7412 25.6637C11.7283 25.5546 11.7149 25.4453 11.7009 25.3359L11.7011 25.3356L11.6819 25.1891C11.5959 24.5337 11.4925 23.8753 11.3784 23.2277L11.3786 23.2275L11.3523 23.0805C11.2317 22.4075 11.1 21.7472 10.9646 21.1152L10.9648 21.115L10.9328 20.9678C10.7813 20.2684 10.6258 19.6054 10.4766 19.0003L10.4767 19.0001L10.4401 18.8528C10.2482 18.0815 10.0681 17.4101 9.92203 16.8849L10.1684 16.5607L9.22267 14.5535L10.5303 13.9723L15.3079 22.9089H23.2406L23.2673 22.9663ZM14.349 25.1382L13.417 23.1599H11.7631C11.8782 23.8131 11.9825 24.4772 12.0692 25.1382H14.349ZM13.3471 23.0116L12.415 21.0333H11.3466C11.4829 21.6696 11.6154 22.3342 11.7368 23.0116H13.3471ZM33.4626 23.1599L32.1029 25.1382H35.5454C35.6799 24.4672 35.8296 23.8037 35.9873 23.1599H33.4626ZM17.1155 29.3914L18.9412 28.3713L19.8691 27.4131H12.5127C12.7763 28.2187 13.1368 28.8687 13.5583 29.3914H17.1155ZM20.5956 26.5509C20.4213 26.2822 20.32 25.9617 20.32 25.6178L20.3201 25.5947L14.5586 25.5831L14.4189 25.2865H12.0884C12.1025 25.3971 12.1161 25.5075 12.1291 25.6178C12.2012 26.2265 12.3159 26.7736 12.4659 27.2648H19.9941L20.5956 26.5509ZM12.3451 20.8851L11.413 18.9068H10.8559C11.0059 19.5152 11.1623 20.1818 11.3146 20.8851H12.3451ZM15.2595 30.7609L15.6673 30.1968L16.8292 29.5397H13.6824C14.1333 30.0585 14.7243 30.4809 15.2595 30.7609ZM11.3432 18.7585L10.4111 16.7802H10.2984C10.4452 17.3081 10.6262 17.9831 10.8191 18.7585H11.3432ZM21.4397 27.4131L20.0853 29.0973L19.9883 29.3914H33.0457C33.7285 28.8346 34.3314 28.1715 34.7738 27.4131H21.4397ZM32.001 25.2865L31.7733 25.6178L23.7559 25.6016L23.756 25.6178C23.756 26.3958 23.2377 27.0537 22.5278 27.2648H34.8575C35.1357 26.756 35.3416 26.2059 35.4523 25.6178C35.4731 25.5072 35.4943 25.3968 35.516 25.2865H32.001ZM19.0404 28.3976L15.7256 30.3396L11.9459 35.2895L14.3444 37.3142L18.5899 32.7576L20.0253 29.0727L17.8884 31.604L14.2559 35.0046L16.9806 30.8376L19.0404 28.3976ZM19.9394 29.5397L19.3171 31.4263L21.9512 31.4573V31.4833L23.0792 31.4703L24.2072 31.4833V31.4573L27.9903 31.4139C29.3769 31.4079 31.3 30.7423 32.8587 29.5397H19.9394ZM31.2077 15.645L31.7979 16.1432L32.3128 15.5333L30.4033 13.9213L29.8884 14.5313L30.4786 15.0295L17.0392 30.9495L14.6609 34.5063L17.7682 31.565L31.2077 15.645ZM25.1023 23.2995L21.9444 27.046C21.9782 27.0481 22.0124 27.0492 22.0472 27.0492C22.9742 27.0492 23.5533 26.2965 23.5533 25.3695L23.5533 25.3537L31.5655 25.3695L38.3523 15.4948L37.7754 15.1215L31.7013 23.2995H25.1023ZM20.7464 26.2587L23.2406 23.2995H15.0738L10.3571 14.4768L9.74622 14.7483L14.7345 25.3355L20.5411 25.3469L20.541 25.3695C20.541 25.696 20.6128 26.0008 20.7464 26.2587ZM34.9242 21.0333L33.5645 23.0116H36.0238C36.1943 22.3237 36.3735 21.6594 36.5522 21.0333H34.9242ZM37.8473 16.7802L36.4876 18.7585H37.247C37.5256 17.9014 37.7674 17.2168 37.9262 16.7802H37.8473ZM36.3857 18.9068L35.026 20.8851H36.5947C36.8023 20.1646 37.0085 19.4975 37.199 18.9068H36.3857Z"/>
</mask>
<path fill-rule="evenodd" clip-rule="evenodd" d="M23.2673 22.9663L29.9281 15.076L29.3379 14.5778L30.3568 13.3708L32.8633 15.4868L31.8444 16.6937L31.2542 16.1955L25.5868 22.9089H31.5048L37.6802 14.5946L38.9017 15.385L38.0701 16.595L38.2933 16.9137C38.1355 17.3475 37.8953 18.0277 37.6185 18.8792L37.5706 19.0265L37.5707 19.0267C37.3813 19.6139 37.1765 20.277 36.9701 20.9932L36.9277 21.1404L36.9278 21.1406C36.7503 21.7624 36.5723 22.4223 36.4029 23.1056L36.3665 23.2526L36.3667 23.2528C36.2103 23.8914 36.0618 24.5494 35.9285 25.215L35.8991 25.3616L35.8993 25.3619C35.8778 25.4711 35.8568 25.5805 35.8362 25.69C35.7178 26.3192 35.4979 26.9078 35.2003 27.4522L35.0891 27.6554H35.0844C34.6211 28.4352 33.9979 29.119 33.2925 29.6941L33.1847 29.782H33.0745L33.0973 29.8489C31.4644 31.1088 29.4467 31.7977 27.9935 31.8045L24.2334 31.8477L24.2072 31.8739L23.0792 31.861L21.9512 31.8739L21.9251 31.8477L19.3752 31.8176L18.9267 32.9691L14.3766 37.8526L11.4097 35.348L14.7771 30.9381C14.2904 30.6469 13.7878 30.2565 13.3876 29.7959L13.3939 29.782H13.3715L13.2542 29.6366C12.8275 29.1075 12.4583 28.4561 12.1821 27.6554H12.1767L12.0923 27.3788C11.9361 26.8673 11.8162 26.2976 11.7412 25.6637C11.7283 25.5546 11.7149 25.4453 11.7009 25.3359L11.7011 25.3356L11.6819 25.1891C11.5959 24.5337 11.4925 23.8753 11.3784 23.2277L11.3786 23.2275L11.3523 23.0805C11.2317 22.4075 11.1 21.7472 10.9646 21.1152L10.9648 21.115L10.9328 20.9678C10.7813 20.2684 10.6258 19.6054 10.4766 19.0003L10.4767 19.0001L10.4401 18.8528C10.2482 18.0815 10.0681 17.4101 9.92203 16.8849L10.1684 16.5607L9.22267 14.5535L10.5303 13.9723L15.3079 22.9089H23.2406L23.2673 22.9663ZM14.349 25.1382L13.417 23.1599H11.7631C11.8782 23.8131 11.9825 24.4772 12.0692 25.1382H14.349ZM13.3471 23.0116L12.415 21.0333H11.3466C11.4829 21.6696 11.6154 22.3342 11.7368 23.0116H13.3471ZM33.4626 23.1599L32.1029 25.1382H35.5454C35.6799 24.4672 35.8296 23.8037 35.9873 23.1599H33.4626ZM17.1155 29.3914L18.9412 28.3713L19.8691 27.4131H12.5127C12.7763 28.2187 13.1368 28.8687 13.5583 29.3914H17.1155ZM20.5956 26.5509C20.4213 26.2822 20.32 25.9617 20.32 25.6178L20.3201 25.5947L14.5586 25.5831L14.4189 25.2865H12.0884C12.1025 25.3971 12.1161 25.5075 12.1291 25.6178C12.2012 26.2265 12.3159 26.7736 12.4659 27.2648H19.9941L20.5956 26.5509ZM12.3451 20.8851L11.413 18.9068H10.8559C11.0059 19.5152 11.1623 20.1818 11.3146 20.8851H12.3451ZM15.2595 30.7609L15.6673 30.1968L16.8292 29.5397H13.6824C14.1333 30.0585 14.7243 30.4809 15.2595 30.7609ZM11.3432 18.7585L10.4111 16.7802H10.2984C10.4452 17.3081 10.6262 17.9831 10.8191 18.7585H11.3432ZM21.4397 27.4131L20.0853 29.0973L19.9883 29.3914H33.0457C33.7285 28.8346 34.3314 28.1715 34.7738 27.4131H21.4397ZM32.001 25.2865L31.7733 25.6178L23.7559 25.6016L23.756 25.6178C23.756 26.3958 23.2377 27.0537 22.5278 27.2648H34.8575C35.1357 26.756 35.3416 26.2059 35.4523 25.6178C35.4731 25.5072 35.4943 25.3968 35.516 25.2865H32.001ZM19.0404 28.3976L15.7256 30.3396L11.9459 35.2895L14.3444 37.3142L18.5899 32.7576L20.0253 29.0727L17.8884 31.604L14.2559 35.0046L16.9806 30.8376L19.0404 28.3976ZM19.9394 29.5397L19.3171 31.4263L21.9512 31.4573V31.4833L23.0792 31.4703L24.2072 31.4833V31.4573L27.9903 31.4139C29.3769 31.4079 31.3 30.7423 32.8587 29.5397H19.9394ZM31.2077 15.645L31.7979 16.1432L32.3128 15.5333L30.4033 13.9213L29.8884 14.5313L30.4786 15.0295L17.0392 30.9495L14.6609 34.5063L17.7682 31.565L31.2077 15.645ZM25.1023 23.2995L21.9444 27.046C21.9782 27.0481 22.0124 27.0492 22.0472 27.0492C22.9742 27.0492 23.5533 26.2965 23.5533 25.3695L23.5533 25.3537L31.5655 25.3695L38.3523 15.4948L37.7754 15.1215L31.7013 23.2995H25.1023ZM20.7464 26.2587L23.2406 23.2995H15.0738L10.3571 14.4768L9.74622 14.7483L14.7345 25.3355L20.5411 25.3469L20.541 25.3695C20.541 25.696 20.6128 26.0008 20.7464 26.2587ZM34.9242 21.0333L33.5645 23.0116H36.0238C36.1943 22.3237 36.3735 21.6594 36.5522 21.0333H34.9242ZM37.8473 16.7802L36.4876 18.7585H37.247C37.5256 17.9014 37.7674 17.2168 37.9262 16.7802H37.8473ZM36.3857 18.9068L35.026 20.8851H36.5947C36.8023 20.1646 37.0085 19.4975 37.199 18.9068H36.3857Z" fill="black" stroke="#D4D4D4" stroke-width="0.2" mask="url(#path-2-inside-1_422_1048)"/>
</svg>
