<svg width="40" height="40" viewBox="0 0 40 40" fill="none" xmlns="http://www.w3.org/2000/svg">
<path fill-rule="evenodd" clip-rule="evenodd" d="M29.53 9.91352C26.7294 7.20266 22.9144 5.53352 18.7127 5.53352C10.1257 5.53352 3.15413 12.5051 3.15413 21.0921C3.15413 29.4995 9.83702 36.3583 18.1759 36.6416C17.9916 36.6477 17.8065 36.6507 17.6206 36.6507C8.43085 36.6507 0.96991 29.1898 0.96991 20C0.96991 10.8102 8.43085 3.3493 17.6206 3.3493C22.6806 3.3493 27.2165 5.61126 30.2713 9.17837L33.6949 5.78321C34.7498 4.73712 36.4476 4.72727 37.5145 5.7611L38.5055 6.72134C38.8374 7.0429 39.0263 7.48415 39.03 7.94626C39.0336 8.40829 38.8516 8.85251 38.5249 9.17923L33.3045 14.3997C33.9304 16.1502 34.2713 18.0356 34.2713 20C34.2713 20.1859 34.2683 20.3709 34.2622 20.5553C34.1925 18.5022 33.7241 16.5494 32.9321 14.772L30.9349 16.7694C31.7599 18.2795 32.2289 20.0114 32.2289 21.852C32.2289 21.9581 32.2274 22.0638 32.2243 22.1692C32.1675 20.2928 31.5926 18.5456 30.6381 17.0661L28.9697 18.7345C29.7233 19.8271 30.1648 21.1513 30.1648 22.5777C30.1648 22.6303 30.1642 22.6827 30.163 22.735C30.1294 21.2944 29.6237 19.9695 28.7949 18.9094L21.3337 26.3706C20.7677 26.9366 20.112 27.392 19.4 27.7232C20.5072 28.708 21.9544 29.3186 23.5424 29.3556C23.4901 29.3569 23.4376 29.3574 23.3851 29.3574C21.7694 29.3574 20.2848 28.791 19.1195 27.8461C18.3095 28.1792 17.4348 28.3554 16.542 28.3554C15.5619 28.3554 14.6035 28.1431 13.7287 27.7438C14.6569 29.2377 15.9679 30.4695 17.5241 31.3016C18.8419 32.0062 20.3354 32.4242 21.9212 32.4723C21.8159 32.4753 21.7101 32.4769 21.6041 32.4769C19.7975 32.4769 18.0955 32.025 16.6053 31.2282C14.7213 30.2209 13.1756 28.6622 12.1844 26.7684C12.0346 26.6427 11.8898 26.51 11.7504 26.3706L4.67007 19.2903C4.35507 18.9753 4.17811 18.5481 4.17811 18.1027C4.17811 17.6573 4.35507 17.2301 4.67007 16.9151L6.33663 15.2485C7.60741 13.9777 9.331 13.2638 11.1283 13.2638C12.2668 13.2638 13.3758 13.5503 14.3589 14.0834C14.7882 13.6828 15.2508 13.3173 15.7419 12.9915C17.4226 11.8767 19.438 11.2272 21.6041 11.2272C23.5006 11.2272 25.2817 11.7252 26.8237 12.5974L29.53 9.91352ZM23.5931 15.8011L26.1425 13.2729C24.9402 12.7605 23.6174 12.4769 22.2289 12.4769C20.1903 12.4769 18.2933 13.0882 16.7116 14.1374C16.3301 14.3905 15.9669 14.6689 15.6246 14.9705C15.7255 15.0599 15.824 15.1527 15.9198 15.2485L18.5244 17.8531C19.7566 16.5858 21.4796 15.798 23.3851 15.798C23.4547 15.798 23.524 15.799 23.5931 15.8011ZM19.0554 18.3841L19.1482 18.477C19.6291 18.9578 20.4083 18.9595 20.8912 18.4806L22.9229 16.4658C21.413 16.6459 20.0621 17.347 19.0554 18.3841Z" fill="#D4D4D4"/>
</svg>
