<svg width="24" height="24" viewBox="0 0 24 24" fill="none" xmlns="http://www.w3.org/2000/svg">
<path fill-rule="evenodd" clip-rule="evenodd" d="M2.90685 21.7701C2.66519 21.5906 2.52024 21.3061 2.52024 21.0012V2.44667C2.52024 2.13541 2.67131 1.8454 2.92218 1.66664L13.4288 11.7111L2.90685 21.7701ZM13.6111 11.5368L3.15813 1.54376C3.41168 1.45391 3.69477 1.47397 3.93609 1.60534L16.7182 8.56275L15.9941 9.25866L13.6111 11.5368ZM16.9529 8.69049L20.9802 10.8826C21.2883 11.0503 21.4801 11.3731 21.4801 11.7239C21.4801 12.0748 21.2883 12.3975 20.9802 12.5653L16.97 14.748L13.7933 11.711L16.9529 8.69049ZM13.6106 11.8857L16.7267 14.8804L3.93609 21.8425C3.68856 21.9772 3.39713 21.9949 3.13869 21.8969L13.6106 11.8857Z" fill="#D4D4D4"/>
</svg>
