<svg width="48" height="48" viewBox="0 0 48 48" fill="none" xmlns="http://www.w3.org/2000/svg">
<mask id="path-1-inside-1_64_169" fill="white">
<path fill-rule="evenodd" clip-rule="evenodd" d="M24.0001 4C35.0458 4 44 12.9544 44 24.0001C44 35.0458 35.0458 44 24.0001 44C12.9543 44 4 35.0458 4 24.0001C4 12.9544 12.9543 4 24.0001 4ZM29.7509 20.1806H31.2049V12.1511H29.7509V18.2926C29.4326 18.7411 29.129 18.9653 28.8396 18.9653C28.6224 18.9653 28.5068 18.8496 28.4921 18.6181C28.4778 18.5891 28.4705 18.4012 28.4705 18.0539V12.1511H27.0166V18.5095C27.0166 19.0449 27.0599 19.4427 27.1467 19.7032C27.306 20.0938 27.617 20.2891 28.0799 20.2891C28.6006 20.2891 29.1579 19.9635 29.7509 19.3123V20.1806ZM35.9358 29.946C35.9358 27.3854 35.7985 25.5048 35.5234 24.3037C35.3788 23.6673 35.0678 23.1355 34.5902 22.7089C34.113 22.2822 33.5631 22.0325 32.9411 21.96C30.9735 21.7431 27.9929 21.6345 23.9999 21.6345C20.0215 21.6345 17.0483 21.7431 15.0808 21.96C14.4441 22.0325 13.8909 22.2822 13.4206 22.7089C12.9504 23.1355 12.6429 23.6673 12.4983 24.3037C12.2089 25.5626 12.0642 27.4432 12.0642 29.946C12.0642 32.4925 12.2089 34.3733 12.4983 35.5886C12.6429 36.2105 12.9504 36.7386 13.4206 37.1729C13.8909 37.6067 14.437 37.8598 15.059 37.9321C17.0412 38.1492 20.0215 38.2578 23.9999 38.2578C27.9787 38.2578 30.9589 38.1492 32.9411 37.9321C33.5631 37.8598 34.1091 37.6067 34.5794 37.1729C35.0497 36.7386 35.3572 36.2105 35.5018 35.5886C35.7912 34.3733 35.9358 32.4925 35.9358 29.946ZM34.1564 32.3552V32.5503C34.1564 32.9698 34.1417 33.2811 34.113 33.4835C34.0694 33.8018 33.9609 34.091 33.7874 34.3517C33.3967 34.9301 32.8181 35.2195 32.0513 35.2195C31.299 35.2195 30.7131 34.9448 30.2935 34.3949C29.9896 34.0043 29.8377 33.3823 29.8377 32.5287V29.7291C29.8377 28.8756 29.9825 28.2536 30.2717 27.863C30.6915 27.3131 31.2701 27.0383 32.0079 27.0383C32.7456 27.0383 33.31 27.3131 33.7004 27.863C34.0045 28.2825 34.1564 28.9045 34.1564 29.7291V31.3784H31.2701V32.789C31.2701 33.5269 31.5161 33.8957 32.0079 33.8957C32.355 33.8957 32.5721 33.7077 32.6591 33.3316C32.6591 33.3173 32.6625 33.2664 32.6699 33.1798C32.677 33.0929 32.6806 32.9735 32.6806 32.8216V32.3552H34.1564ZM31.2701 30.185H32.7022V29.4471C32.7022 28.7092 32.4635 28.3402 31.9859 28.3402C31.5088 28.3402 31.2701 28.7092 31.2701 29.4471V30.185ZM23.2404 27.1467V35.111H21.7865V34.2432C21.2221 34.8941 20.6724 35.2195 20.1372 35.2195C19.6598 35.2195 19.3559 35.0171 19.2256 34.6118C19.139 34.366 19.0954 33.9753 19.0954 33.4401V27.1467H20.5278V33.0059C20.5278 33.3534 20.5352 33.5413 20.5494 33.5705C20.5641 33.7871 20.6724 33.8957 20.8751 33.8957C21.1645 33.8957 21.4681 33.6717 21.7865 33.223V27.1467H23.2404ZM28.7092 29.5556V32.7238C28.7092 33.4761 28.6587 34.0043 28.5575 34.3081C28.3837 34.9159 28.0002 35.2195 27.4072 35.2195C26.9009 35.2195 26.4088 34.9232 25.9314 34.3297V35.111H24.4775V24.4123H25.9314V27.9061C26.3944 27.3275 26.8864 27.0383 27.4072 27.0383C28.0002 27.0383 28.3837 27.342 28.5575 27.9495C28.6587 28.2536 28.7092 28.7888 28.7092 29.5556ZM27.277 32.8324V29.4253C27.277 28.7019 27.0671 28.3402 26.6475 28.3402C26.4017 28.3402 26.163 28.456 25.9314 28.6876V33.5485C26.163 33.7802 26.4017 33.8957 26.6475 33.8957C27.0671 33.8957 27.277 33.5413 27.277 32.8324ZM18.8785 24.4123V25.9314H17.1424V35.111H15.5365V25.9314H13.8437V24.4123H18.8785ZM25.8229 17.5765V14.7552C25.8229 13.9163 25.6712 13.2867 25.3673 12.8672C24.9477 12.3175 24.3834 12.0426 23.6746 12.0426C22.9365 12.0426 22.3724 12.3175 21.9818 12.8672C21.6781 13.2867 21.5262 13.9163 21.5262 14.7552V17.5765C21.5262 18.4156 21.6781 19.0449 21.9818 19.4645C22.3724 20.0142 22.9365 20.2891 23.6746 20.2891C24.3834 20.2891 24.9477 20.0142 25.3673 19.4645C25.6712 19.0736 25.8229 18.4445 25.8229 17.5765ZM24.3689 14.4731V17.8586C24.3689 18.5965 24.1376 18.9653 23.6746 18.9653C23.2117 18.9653 22.9799 18.5965 22.9799 17.8586V14.4731C22.9799 13.7208 23.2117 13.3448 23.6746 13.3448C24.1376 13.3448 24.3689 13.7208 24.3689 14.4731ZM19.5512 15.8185L21.5044 9.39515H19.8767L18.7699 13.6269L17.6197 9.39515H15.9271C16.0283 9.72772 16.1947 10.2269 16.4263 10.8925L16.947 12.3898C17.4535 13.88 17.7863 15.023 17.9453 15.8185V20.1806H19.5512V15.8185Z"/>
</mask>
<path fill-rule="evenodd" clip-rule="evenodd" d="M24.0001 4C35.0458 4 44 12.9544 44 24.0001C44 35.0458 35.0458 44 24.0001 44C12.9543 44 4 35.0458 4 24.0001C4 12.9544 12.9543 4 24.0001 4ZM29.7509 20.1806H31.2049V12.1511H29.7509V18.2926C29.4326 18.7411 29.129 18.9653 28.8396 18.9653C28.6224 18.9653 28.5068 18.8496 28.4921 18.6181C28.4778 18.5891 28.4705 18.4012 28.4705 18.0539V12.1511H27.0166V18.5095C27.0166 19.0449 27.0599 19.4427 27.1467 19.7032C27.306 20.0938 27.617 20.2891 28.0799 20.2891C28.6006 20.2891 29.1579 19.9635 29.7509 19.3123V20.1806ZM35.9358 29.946C35.9358 27.3854 35.7985 25.5048 35.5234 24.3037C35.3788 23.6673 35.0678 23.1355 34.5902 22.7089C34.113 22.2822 33.5631 22.0325 32.9411 21.96C30.9735 21.7431 27.9929 21.6345 23.9999 21.6345C20.0215 21.6345 17.0483 21.7431 15.0808 21.96C14.4441 22.0325 13.8909 22.2822 13.4206 22.7089C12.9504 23.1355 12.6429 23.6673 12.4983 24.3037C12.2089 25.5626 12.0642 27.4432 12.0642 29.946C12.0642 32.4925 12.2089 34.3733 12.4983 35.5886C12.6429 36.2105 12.9504 36.7386 13.4206 37.1729C13.8909 37.6067 14.437 37.8598 15.059 37.9321C17.0412 38.1492 20.0215 38.2578 23.9999 38.2578C27.9787 38.2578 30.9589 38.1492 32.9411 37.9321C33.5631 37.8598 34.1091 37.6067 34.5794 37.1729C35.0497 36.7386 35.3572 36.2105 35.5018 35.5886C35.7912 34.3733 35.9358 32.4925 35.9358 29.946ZM34.1564 32.3552V32.5503C34.1564 32.9698 34.1417 33.2811 34.113 33.4835C34.0694 33.8018 33.9609 34.091 33.7874 34.3517C33.3967 34.9301 32.8181 35.2195 32.0513 35.2195C31.299 35.2195 30.7131 34.9448 30.2935 34.3949C29.9896 34.0043 29.8377 33.3823 29.8377 32.5287V29.7291C29.8377 28.8756 29.9825 28.2536 30.2717 27.863C30.6915 27.3131 31.2701 27.0383 32.0079 27.0383C32.7456 27.0383 33.31 27.3131 33.7004 27.863C34.0045 28.2825 34.1564 28.9045 34.1564 29.7291V31.3784H31.2701V32.789C31.2701 33.5269 31.5161 33.8957 32.0079 33.8957C32.355 33.8957 32.5721 33.7077 32.6591 33.3316C32.6591 33.3173 32.6625 33.2664 32.6699 33.1798C32.677 33.0929 32.6806 32.9735 32.6806 32.8216V32.3552H34.1564ZM31.2701 30.185H32.7022V29.4471C32.7022 28.7092 32.4635 28.3402 31.9859 28.3402C31.5088 28.3402 31.2701 28.7092 31.2701 29.4471V30.185ZM23.2404 27.1467V35.111H21.7865V34.2432C21.2221 34.8941 20.6724 35.2195 20.1372 35.2195C19.6598 35.2195 19.3559 35.0171 19.2256 34.6118C19.139 34.366 19.0954 33.9753 19.0954 33.4401V27.1467H20.5278V33.0059C20.5278 33.3534 20.5352 33.5413 20.5494 33.5705C20.5641 33.7871 20.6724 33.8957 20.8751 33.8957C21.1645 33.8957 21.4681 33.6717 21.7865 33.223V27.1467H23.2404ZM28.7092 29.5556V32.7238C28.7092 33.4761 28.6587 34.0043 28.5575 34.3081C28.3837 34.9159 28.0002 35.2195 27.4072 35.2195C26.9009 35.2195 26.4088 34.9232 25.9314 34.3297V35.111H24.4775V24.4123H25.9314V27.9061C26.3944 27.3275 26.8864 27.0383 27.4072 27.0383C28.0002 27.0383 28.3837 27.342 28.5575 27.9495C28.6587 28.2536 28.7092 28.7888 28.7092 29.5556ZM27.277 32.8324V29.4253C27.277 28.7019 27.0671 28.3402 26.6475 28.3402C26.4017 28.3402 26.163 28.456 25.9314 28.6876V33.5485C26.163 33.7802 26.4017 33.8957 26.6475 33.8957C27.0671 33.8957 27.277 33.5413 27.277 32.8324ZM18.8785 24.4123V25.9314H17.1424V35.111H15.5365V25.9314H13.8437V24.4123H18.8785ZM25.8229 17.5765V14.7552C25.8229 13.9163 25.6712 13.2867 25.3673 12.8672C24.9477 12.3175 24.3834 12.0426 23.6746 12.0426C22.9365 12.0426 22.3724 12.3175 21.9818 12.8672C21.6781 13.2867 21.5262 13.9163 21.5262 14.7552V17.5765C21.5262 18.4156 21.6781 19.0449 21.9818 19.4645C22.3724 20.0142 22.9365 20.2891 23.6746 20.2891C24.3834 20.2891 24.9477 20.0142 25.3673 19.4645C25.6712 19.0736 25.8229 18.4445 25.8229 17.5765ZM24.3689 14.4731V17.8586C24.3689 18.5965 24.1376 18.9653 23.6746 18.9653C23.2117 18.9653 22.9799 18.5965 22.9799 17.8586V14.4731C22.9799 13.7208 23.2117 13.3448 23.6746 13.3448C24.1376 13.3448 24.3689 13.7208 24.3689 14.4731ZM19.5512 15.8185L21.5044 9.39515H19.8767L18.7699 13.6269L17.6197 9.39515H15.9271C16.0283 9.72772 16.1947 10.2269 16.4263 10.8925L16.947 12.3898C17.4535 13.88 17.7863 15.023 17.9453 15.8185V20.1806H19.5512V15.8185Z" stroke="#D4D4D4" stroke-width="0.6" mask="url(#path-1-inside-1_64_169)"/>
</svg>
