<svg width="40" height="40" viewBox="0 0 40 40" fill="none" xmlns="http://www.w3.org/2000/svg">
<path fill-rule="evenodd" clip-rule="evenodd" d="M21.9549 16.086C22.1508 15.9721 22.6092 15.7999 23.2482 16.1583C23.2482 16.1583 22.6536 15.2748 21.7854 14.9873C21.1089 14.7636 23.3121 13.9149 24.9984 14.3552C24.5053 13.9024 24.0122 13.4106 22.7523 12.9981C22.7411 12.9953 22.7342 12.9842 22.737 12.9731C22.7384 12.9619 22.7495 12.955 22.7606 12.955C23.9149 13.1134 24.7956 13.344 26.5751 14.947C26.5751 14.947 23.9205 14.2969 22.6495 14.9095C22.6495 14.9095 23.8108 15.6735 23.6982 16.8973C23.6982 16.8973 22.5758 15.7665 21.9549 16.086ZM21.9549 16.086C21.8896 16.1235 21.8549 16.1555 21.8521 16.1583C21.8855 16.1291 21.9188 16.1041 21.9549 16.086ZM19.8046 31.2356L20.3588 30.4647C20.5589 30.1841 20.82 29.9604 21.1201 29.8062C21.4187 29.6548 21.7535 29.5701 22.098 29.5701H23.2232C23.3037 29.5701 23.3746 29.6145 23.4135 29.6854C23.4482 29.7548 23.4426 29.8396 23.3982 29.9049L22.8148 30.7216C22.6245 30.987 22.3772 31.1995 22.0938 31.3467C21.8091 31.4926 21.4923 31.5732 21.1645 31.5732H19.9768C19.8963 31.5732 19.824 31.5273 19.7865 31.4565C19.7504 31.3842 19.7574 31.2995 19.8046 31.2356ZM20.3894 31.1481H21.1645C21.4229 31.1481 21.6729 31.0856 21.8994 30.9689C22.123 30.8536 22.3189 30.6855 22.4703 30.4744L22.812 29.9938H22.098C21.8216 29.9938 21.5535 30.0604 21.3145 30.1841C21.0728 30.3063 20.8631 30.4869 20.7019 30.7105L20.3894 31.1481ZM23.9399 33.254L22.223 35.6641C22.0091 35.9655 21.7243 36.2086 21.4034 36.3753C21.0812 36.5434 20.7228 36.6378 20.3491 36.642L19.2823 36.6503C19.2017 36.6531 19.1281 36.6087 19.092 36.5364C19.0545 36.467 19.0614 36.3809 19.1073 36.3156L20.8339 33.9013C21.0548 33.5929 21.3437 33.3484 21.6715 33.1776C21.9994 33.0109 22.3675 32.9192 22.7481 32.9164L23.7677 32.9192C23.8469 32.9192 23.9205 32.9623 23.9552 33.0331C23.9941 33.104 23.9872 33.1887 23.9399 33.254ZM23.3579 33.3415H22.7453C22.4355 33.3415 22.1341 33.4165 21.866 33.5554C21.5951 33.6943 21.3604 33.8944 21.1798 34.1472L19.6948 36.2239L20.3449 36.2169C20.6505 36.2128 20.945 36.1364 21.2062 36.0002C21.4701 35.8627 21.7021 35.6641 21.8785 35.4154L23.3579 33.3415ZM22.7203 31.2398L23.2273 30.498C23.426 30.2077 23.6899 29.9757 23.9913 29.8146C24.2928 29.6562 24.6345 29.5701 24.9846 29.5701H28.4962C29.2172 29.5701 29.8714 29.8618 30.3465 30.3383C30.8202 30.8105 31.1133 31.4648 31.1133 32.1885C31.1133 32.9109 30.8202 33.5651 30.3465 34.0374C29.8728 34.5111 29.2185 34.8042 28.4976 34.8042H23.3982C23.3176 34.8042 23.2454 34.7598 23.2079 34.6903C23.1718 34.6181 23.1787 34.5333 23.2232 34.4708L23.7149 33.7749C23.8997 33.511 24.1428 33.3026 24.4206 33.1581C24.697 33.0123 25.0096 32.9345 25.3318 32.9331L27.8405 32.9192H27.8433C27.9642 32.9192 28.0795 32.8859 28.1837 32.8247C28.2837 32.7678 28.3684 32.6803 28.4281 32.5747C28.4865 32.4705 28.5129 32.3538 28.5129 32.2385C28.5115 32.1219 28.4795 32.008 28.4198 31.9052C28.3587 31.801 28.2739 31.7176 28.1739 31.6621C28.0739 31.6037 27.9572 31.5732 27.8392 31.5732H22.8967C22.8175 31.5732 22.7453 31.5273 22.7092 31.4593C22.6717 31.3898 22.6759 31.3051 22.7203 31.2398ZM23.2968 31.1481H27.8392C28.0336 31.1481 28.2212 31.1995 28.3837 31.294C28.5476 31.387 28.6879 31.5218 28.7865 31.6885C28.8838 31.8579 28.9352 32.0455 28.9379 32.233C28.9393 32.4205 28.8935 32.6108 28.799 32.7803C28.7004 32.9553 28.5629 33.0928 28.3976 33.1915C28.2323 33.2873 28.042 33.3415 27.8433 33.3415L25.3332 33.3568C25.079 33.3568 24.8359 33.4193 24.6164 33.5332C24.3997 33.6471 24.208 33.8124 24.0622 34.018L23.8066 34.3792H28.4976C29.1032 34.3792 29.6505 34.1333 30.0478 33.7388C30.4423 33.3415 30.6882 32.7942 30.6882 32.1885C30.6882 31.5815 30.4423 31.0342 30.0451 30.6369C29.6506 30.2396 29.1005 29.9938 28.4962 29.9938H24.9846C24.704 29.9938 24.4317 30.0632 24.19 30.1896C23.9483 30.3174 23.7371 30.5049 23.5788 30.7369L23.2968 31.1481ZM20.4519 29.9049L16.3652 35.6363C16.1415 35.9488 15.8512 36.1975 15.5192 36.3697C15.1886 36.5392 14.8163 36.6323 14.4343 36.6323H13.3883C13.3091 36.6323 13.2369 36.5878 13.1994 36.517C13.1633 36.4475 13.1702 36.36 13.2175 36.2975L17.35 30.5494C17.5709 30.241 17.8598 29.9965 18.1877 29.8284C18.5141 29.6604 18.8822 29.5701 19.2601 29.5701H20.2797C20.3588 29.5701 20.4325 29.6145 20.4672 29.6854C20.5061 29.7548 20.4991 29.8396 20.4519 29.9049ZM19.8685 29.9938H19.2601C18.9489 29.9938 18.6502 30.0702 18.3794 30.2063C18.1113 30.3438 17.8751 30.5452 17.6945 30.7953L13.8023 36.2086H14.4343C14.7482 36.2086 15.0525 36.1322 15.3247 35.9919C15.597 35.8516 15.8359 35.6474 16.0193 35.3904L19.8685 29.9938ZM21.8994 32.008L19.3003 35.6544C19.0836 35.96 18.7975 36.2058 18.4738 36.3739C18.1502 36.5434 17.7862 36.6378 17.4112 36.642L16.336 36.6503C16.2582 36.6531 16.1846 36.6087 16.1471 36.5364C16.111 36.467 16.1151 36.3809 16.1624 36.3156L18.7822 32.6622C19.0031 32.3566 19.2892 32.1107 19.6171 31.9413C19.9435 31.7718 20.3116 31.6801 20.6894 31.6773L21.7243 31.6704C21.8049 31.6704 21.8771 31.7149 21.9146 31.7871C21.9507 31.8565 21.9466 31.9427 21.8994 32.008ZM21.3145 32.0969L20.6908 32.1024C20.3811 32.1024 20.0796 32.1774 19.8115 32.3177C19.5434 32.4566 19.3059 32.6581 19.1253 32.9109L16.7513 36.2239L17.4056 36.2169C17.714 36.2128 18.0112 36.1364 18.2766 35.9988C18.5433 35.8599 18.7766 35.6585 18.9558 35.4085L21.3145 32.0969ZM12.9285 36.3156C12.866 36.3156 12.8035 36.2864 12.7632 36.2378L8.93345 31.4926C8.88206 31.4301 8.87372 31.3426 8.90706 31.269C8.94318 31.1953 9.0168 31.1481 9.09876 31.1481H10.2712C10.6462 31.1481 11.0157 31.2314 11.3477 31.387C11.6825 31.5454 11.9798 31.7732 12.2215 32.0635L13.0091 33.0123C13.3939 33.4735 13.5939 34.036 13.6092 34.6056C13.6258 35.1723 13.4564 35.746 13.1008 36.2281L12.9285 36.3156ZM12.9105 35.7419C13.1049 35.3932 13.1966 35.0029 13.1855 34.6167C13.1716 34.1402 13.0021 33.6693 12.6826 33.2832L11.895 32.3344C11.6936 32.0927 11.4463 31.9024 11.1685 31.7718C10.8907 31.6412 10.5837 31.5732 10.2698 31.5732H9.54327L12.9105 35.7419ZM14.8733 7.22773C13.9648 7.18466 14.0662 5.84973 14.8691 4.98988C14.8788 4.98154 14.8913 4.97877 14.9024 4.98154C14.9135 4.98293 14.9247 4.99266 14.9302 5.00377C15.0038 5.21075 15.2997 5.9303 15.872 5.82334C15.872 5.82334 15.7623 3.90499 18.5724 3.50493C18.5877 3.50215 18.603 3.51187 18.6072 3.52715C18.6127 3.54104 18.6058 3.55632 18.5891 3.56327C17.7126 3.99806 17.5584 4.82458 18.3016 5.12601C18.3016 5.12601 20.113 1.21151 26.6459 5.00377C26.6709 5.01905 26.682 5.04961 26.6709 5.07739C26.6598 5.10378 26.6306 5.11906 26.6015 5.11212C25.6555 4.88292 23.3843 4.49675 22.8175 5.89835C22.8009 5.93725 22.812 5.97892 22.8412 6.00809C22.8703 6.03448 22.9148 6.04143 22.9509 6.02337C25.8722 4.62593 28.6143 6.34287 31.048 9.48224C31.0744 9.51697 31.0744 9.56281 31.048 9.59893C31.0216 9.63226 30.9758 9.64616 30.9369 9.6281C28.799 8.74602 27.5488 8.99605 26.8404 9.60726C26.7946 9.65032 26.7765 9.717 26.7987 9.77534C26.8209 9.83368 26.8765 9.87397 26.939 9.87536C29.9923 9.94065 31.3536 13.1717 30.8632 15.2595C30.8605 15.2748 30.8313 15.347 30.8021 15.4234C30.791 15.4609 30.7577 15.4901 30.7174 15.4943C30.6771 15.4971 30.6396 15.4762 30.6188 15.4429C29.9673 14.2344 29.3061 13.5607 27.9572 13.844C29.9603 15.1928 29.063 17.5599 27.3794 19.4449C27.3683 19.456 27.3502 19.4602 27.3349 19.4518C27.321 19.4421 27.3141 19.4241 27.3182 19.4088C27.835 17.8766 27.6558 17.0042 26.075 16.3472C26.2139 18.0419 25.0929 19.5657 23.9066 20.7576C23.8983 20.7645 23.8844 20.7673 23.876 20.7576C23.8663 20.7507 23.8622 20.7395 23.8691 20.7284C24.4247 19.6922 24.3525 17.9085 22.7606 17.5001C22.7606 17.5001 24.5359 17.2654 24.5053 19.4241C24.5053 19.4449 24.5178 19.4643 24.5386 19.4713C24.5567 19.4755 24.5789 19.4685 24.5914 19.4532C24.9401 18.9448 26.1306 17.0501 25.4763 15.7374C25.4763 15.7374 27.5975 15.8832 27.7225 17.7835C27.7294 17.8474 27.7739 17.8988 27.8364 17.9127C27.8989 17.928 27.9642 17.8988 27.9947 17.8433C28.5295 16.8764 29.4005 14.6567 26.7834 13.8301C26.7834 13.8301 28.6296 12.9314 30.1867 13.9829C30.2506 14.0274 30.334 14.0246 30.3965 13.9829C30.4604 13.9399 30.4923 13.8621 30.4757 13.7857C30.0075 11.5715 28.4795 9.99204 25.6972 10.6796C25.6513 10.6908 25.6013 10.6769 25.568 10.6435C25.5319 10.6102 25.5166 10.5644 25.5277 10.5171C25.6958 9.78229 26.7195 7.80142 29.7131 8.80575C29.7533 8.81964 29.7992 8.80436 29.8242 8.76824C29.8492 8.73074 29.8436 8.68351 29.8159 8.65017C28.906 7.64446 25.6569 4.38701 22.2077 7.39442C22.1827 7.41664 22.1494 7.42359 22.1202 7.41248C22.091 7.40414 22.0688 7.37775 22.0647 7.3458C21.9702 6.73598 21.8452 4.75512 23.8413 4.47452C23.876 4.46896 23.9024 4.44118 23.9038 4.40645C23.9066 4.37173 23.8816 4.34256 23.851 4.33283C22.68 4.04112 19.3309 3.44936 18.7503 6.0456C18.7433 6.08032 18.7211 6.10811 18.6905 6.12478C18.6613 6.14006 18.6225 6.14283 18.5919 6.12894C17.6987 5.76639 17.2347 5.0385 17.6181 4.15919C17.6279 4.13419 17.6223 4.10502 17.6029 4.08557C17.582 4.06751 17.5528 4.06335 17.5292 4.07724C16.7402 4.49675 16.336 5.28715 16.518 6.18451C16.5263 6.21785 16.5124 6.25535 16.486 6.27897C16.0012 6.66236 14.9719 6.38315 14.8066 5.53024C14.2371 6.99297 15.0997 7.02214 16.0637 6.81655C16.0262 6.84155 15.9887 6.861 15.9526 6.88184C15.9901 6.87211 16.0082 6.87072 16.0082 6.87072C14.037 7.8167 11.5908 9.72672 11.5908 9.72672C11.8408 9.94481 12.3882 10.0184 12.3882 10.0184C10.5059 10.9005 8.95151 12.9314 8.95151 12.9314C9.20433 12.1007 10.2642 10.8533 11.3769 10.2157C11.1713 10.1657 10.5948 9.9212 10.5948 9.9212C12.1701 8.43625 13.8175 7.63195 14.8733 7.22773ZM13.3536 16.5264C13.8662 16.5681 14.326 16.6195 14.6149 16.6556C14.6232 16.6556 14.6302 16.6639 14.6302 16.6736C14.6302 16.682 14.6218 16.6889 14.6121 16.6889C13.5647 16.6597 12.1006 16.5597 11.4255 16.7097C11.4033 16.7139 11.3852 16.7334 11.3838 16.7584C11.3658 16.9056 11.3074 17.4432 11.3519 17.6918C11.413 18.0127 11.5158 18.3281 11.6492 18.585C11.6672 18.3586 11.7103 18.1628 11.7631 17.9974C11.8909 17.5863 12.0728 17.3654 12.0728 17.3654C12.0826 17.3543 12.0937 17.3501 12.1076 17.3473C12.1201 17.3473 12.1312 17.3529 12.1409 17.3612C12.4312 17.6377 12.5924 17.9572 12.6771 18.2572C12.7771 18.6114 12.7743 18.9406 12.759 19.1323C12.9757 18.9559 13.1258 18.8017 13.2341 18.6587C13.4508 18.3767 13.505 18.1447 13.6008 17.9085C13.9495 17.0626 14.6482 16.7139 15.3497 16.6806C15.8137 16.6584 16.2832 16.7778 16.6485 16.9862C16.7611 17.0487 16.8638 17.1223 16.9555 17.2001C17.7432 16.5264 18.0224 15.579 18.1168 15.0831C18.121 15.0595 18.1432 15.0414 18.1682 15.0414C18.1946 15.0414 18.2141 15.0609 18.2196 15.0859C18.4641 16.7361 18.0404 17.5918 16.7027 18.2503C16.6485 18.2739 16.6152 18.3281 16.6083 18.3864C16.6041 18.4461 16.6319 18.5017 16.6805 18.5378C17.0583 18.7906 17.5403 18.9198 18.0626 18.9407C19.4267 18.8323 20.6533 18.4864 21.2826 16.9251C21.2923 16.9056 21.3118 16.8973 21.3312 16.9028C21.352 16.9084 21.3659 16.9306 21.3604 16.9501C20.4144 21.6508 14.6052 18.2739 12.898 21.6202C12.8868 21.6397 12.8924 21.6647 12.9091 21.68C12.9271 21.6939 12.9507 21.6952 12.9688 21.6827C13.9565 20.9854 15.3344 21.4855 15.3344 21.4855C14.5204 21.805 14.3287 22.5773 14.3037 23.1219C14.3023 23.176 14.3357 23.2233 14.3871 23.2344C14.4385 23.2483 14.4926 23.2233 14.5149 23.176C15.0858 22.0036 16.4888 21.7758 16.4888 21.7758C15.3136 23.4927 16.4749 24.7152 17.0361 25.1638C17.0764 25.193 17.1292 25.1972 17.1722 25.1708C17.2139 25.143 17.2347 25.0916 17.2236 25.043C17.0694 24.3443 17.0736 23.7372 17.1847 23.208C17.1806 23.201 17.1778 23.1913 17.1764 23.1844L17.1875 23.201C17.7029 20.7937 20.4561 20.07 20.4561 20.07C18.3155 21.2938 17.6904 22.6204 17.7126 23.7747C20.4338 26.189 27.4599 24.6415 29.0477 20.1853C29.056 20.1617 29.0477 20.1367 29.0268 20.1228C29.0074 20.1103 28.9782 20.1103 28.9602 20.1283C24.8734 24.6651 20.2574 21.8522 22.6495 17.4793C20.9214 23.7164 26.9237 23.1691 30.4701 16.732C30.4923 16.6889 30.5382 16.6695 30.584 16.6806C30.6299 16.6931 30.6618 16.7334 30.6618 16.7806C30.6549 25.2958 20.7339 27.7434 17.7404 24.1359C17.9529 25.7014 19.2614 26.8669 19.2614 26.8669C15.4859 27.2308 15.2775 23.1955 15.2775 23.1955C14.6802 23.5733 14.6399 24.3707 14.658 24.761C14.6593 24.7929 14.6413 24.8221 14.6121 24.8332C14.5816 24.8471 14.5482 24.8374 14.5274 24.8124C13.223 23.2344 14.1593 22.0106 14.1593 22.0106C13.1272 21.8967 12.3465 22.6509 12.0353 23.0107C12.0173 23.033 11.9867 23.0399 11.9617 23.0288C11.9353 23.0177 11.9214 22.9885 11.9256 22.9621C12.4062 20.0325 13.8578 19.3032 15.5011 19.0893C15.0733 18.8726 14.6802 18.5809 14.3218 18.2336C14.2759 18.1891 14.2621 18.1197 14.2884 18.0627C14.3135 18.0044 14.3718 17.9669 14.4357 17.9683C15.3511 18.0016 16.0443 17.7988 16.5638 17.4821C16.1943 17.3362 15.8248 17.2918 15.4928 17.3126C15.033 17.3432 14.6329 17.4974 14.3718 17.7002C14.2246 17.8141 14.119 17.9419 14.0787 18.0697C13.9162 18.61 13.6258 18.9851 13.3147 19.2463C12.7174 19.7477 12.0381 19.8172 12.0381 19.8172C12.0062 19.8227 11.9756 19.8061 11.9617 19.7769C11.9464 19.7477 11.9506 19.713 11.9728 19.6908C12.2076 19.4463 12.2784 19.1546 12.277 18.8837C12.277 18.5364 12.159 18.2239 12.0978 18.085C12.0103 18.2058 11.9464 18.3433 11.8992 18.4864C11.7672 18.8837 11.7672 19.2935 11.7672 19.2935C11.7672 19.3088 11.7561 19.324 11.7408 19.3282C11.7256 19.3324 11.7075 19.3268 11.6978 19.3102C11.4352 18.8434 11.3033 18.3989 11.2477 18.0113C11.1741 17.489 11.2602 16.5236 11.2658 16.468C10.9143 16.4236 10.6934 16.3791 10.6934 16.3791C9.89193 15.7415 9.95861 14.9803 9.95861 14.9803C10.1461 15.5832 10.4073 15.9971 10.774 16.1235C11.7408 16.3277 14.3315 15.8874 14.3315 15.8874C14.2815 14.6316 12.9355 14.2997 12.9355 14.2997C14.8024 14.4941 14.7357 16.2208 14.7357 16.2208C14.3065 16.3916 13.8287 16.4833 13.3536 16.5264ZM13.4244 10.7783C13.2702 10.5352 13.3841 10.3477 13.3841 10.3477C13.1661 10.2685 13.0244 10.1712 13.0244 10.1712C13.755 10.4449 15.0163 10.1907 15.0163 10.1907C14.5968 10.6269 13.2188 10.9519 12.5062 11.5423C12.9396 11.0075 13.4244 10.7783 13.4244 10.7783ZM13.123 9.92953C13.123 9.92953 15.6887 9.24887 16.7763 8.43486C16.7763 8.43486 16.5582 9.47668 15.6651 10.0254C15.6651 10.0254 16.0346 9.53364 16.0623 9.24609C15.1372 9.69477 14.1162 9.86424 13.123 9.92953ZM8.94734 12.9328C8.94734 12.9328 9.12654 14.0857 9.89888 14.5177C9.89888 14.5177 10.9574 13.2384 11.1421 12.8258C11.1421 12.8258 10.6379 14.2399 9.95167 14.922C9.2849 14.558 8.84455 13.7815 8.94734 12.9328ZM18.4044 11.195C18.4044 11.195 18.4572 10.3365 19.5615 10.0184C19.5615 10.0184 20.3199 10.1365 20.4922 11.1936C20.4922 11.1936 20.3449 12.0729 19.3628 13.1495C19.3628 13.1495 20.5102 11.0728 19.5615 10.5074C19.0559 10.4782 18.6864 10.7408 18.4044 11.195ZM18.7836 14.1093C19.242 14.1302 19.6171 14.2483 19.9324 14.4163L19.3309 13.7662C20.1769 13.2856 21.0353 13.3009 21.0353 13.3009L20.313 13.0606C20.6547 12.4132 21.1979 11.1436 21.1979 11.1436C20.977 10.2532 20.313 9.16414 20.313 9.16414C19.8129 9.06551 18.9531 9.48085 18.9531 9.48085C19.8893 8.87104 20.4922 8.84603 20.4922 8.84603C21.6021 9.72811 21.7118 11.1436 21.7118 11.1436C21.4187 11.6784 20.7575 12.9314 20.7575 12.9314C21.4326 13.2412 21.7202 13.6259 21.7202 13.6259C20.8645 13.3509 19.806 13.7371 19.806 13.7371C20.4144 14.4914 20.4727 15.1095 20.4727 15.1095C20.1616 14.6747 19.2267 14.2955 18.7766 14.1427C18.7711 14.1413 18.7641 14.1316 18.7655 14.1232C18.7683 14.1163 18.7753 14.1093 18.7836 14.1093ZM9.64467 12.8703C9.97667 13.2634 10.492 13.187 10.2851 13.3703C10.0545 13.5718 9.83359 14.0538 9.83359 14.0538C10.1281 13.1814 9.75302 13.5204 9.64467 12.8703Z" fill="#D4D4D4"/>
</svg>
