<svg width="40" height="40" viewBox="0 0 40 40" fill="none" xmlns="http://www.w3.org/2000/svg">
<path fill-rule="evenodd" clip-rule="evenodd" d="M22.8792 20.683C23.1677 20.5152 23.8429 20.2615 24.7841 20.7894C24.7841 20.7894 23.9084 19.4881 22.6295 19.0645C21.6331 18.7351 24.8782 17.4849 27.3622 18.1335C26.6359 17.4665 25.9095 16.7421 24.0536 16.1344C24.0373 16.1304 24.027 16.114 24.0311 16.0976C24.0332 16.0812 24.0496 16.071 24.0659 16.071C25.7663 16.3043 27.0635 16.6439 29.6846 19.0052C29.6846 19.0052 25.7744 18.0476 23.9022 18.9499C23.9022 18.9499 25.6128 20.0753 25.4471 21.8779C25.4471 21.8779 23.7938 20.2124 22.8792 20.683ZM22.8792 20.683C22.783 20.7382 22.7318 20.7853 22.7277 20.7894C22.7769 20.7464 22.826 20.7096 22.8792 20.683ZM12.448 7.63481C11.1098 7.57138 11.2592 5.60505 12.4418 4.33849C12.4562 4.32622 12.4746 4.32212 12.4909 4.32622C12.5073 4.32826 12.5237 4.34258 12.5319 4.35895C12.6403 4.66383 13.0761 5.72372 13.9191 5.56617C13.9191 5.56617 13.7575 2.74046 17.8968 2.15118C17.9193 2.14708 17.9418 2.16141 17.948 2.18391C17.9562 2.20438 17.9459 2.22688 17.9214 2.23711C16.6303 2.87755 16.4031 4.095 17.4978 4.53901C17.4978 4.53901 20.166 -1.22699 29.789 4.35895C29.8258 4.38146 29.8422 4.42648 29.8258 4.4674C29.8094 4.50628 29.7664 4.52878 29.7235 4.51855C28.3301 4.18094 24.9846 3.61212 24.1498 5.67666C24.1253 5.73396 24.1416 5.79534 24.1846 5.83831C24.2276 5.87718 24.293 5.88742 24.3462 5.86082C28.6493 3.80241 32.6883 6.33143 36.2731 10.9557C36.312 11.0068 36.312 11.0744 36.2731 11.1276C36.2343 11.1767 36.1668 11.1971 36.1095 11.1705C32.9605 9.87124 31.1189 10.2395 30.0754 11.1398C30.0079 11.2033 29.9813 11.3015 30.014 11.3874C30.0468 11.4734 30.1286 11.5327 30.2207 11.5347C34.7181 11.6309 36.7233 16.3902 36.001 19.4656C35.9969 19.4881 35.954 19.5945 35.911 19.707C35.8946 19.7622 35.8455 19.8052 35.7862 19.8114C35.7268 19.8154 35.6716 19.7847 35.6409 19.7356C34.6813 17.9555 33.7073 16.9631 31.7205 17.3805C34.671 19.3673 33.3492 22.8539 30.8693 25.6306C30.8529 25.6469 30.8263 25.6531 30.8038 25.6408C30.7834 25.6265 30.7731 25.5999 30.7793 25.5774C31.5404 23.3205 31.2765 22.0355 28.948 21.0677C29.1526 23.564 27.5014 25.8086 25.754 27.5641C25.7417 27.5744 25.7212 27.5785 25.709 27.5641C25.6946 27.5539 25.6885 27.5375 25.6987 27.5212C26.5172 25.9948 26.4108 23.3675 24.0659 22.766C24.0659 22.766 26.6809 22.4202 26.6359 25.5999C26.6359 25.6306 26.6543 25.6592 26.685 25.6694C26.7116 25.6756 26.7443 25.6653 26.7627 25.6428C27.2763 24.8939 29.0298 22.103 28.0661 20.1694C28.0661 20.1694 31.1906 20.3843 31.3747 23.1834C31.3849 23.2775 31.4504 23.3532 31.5425 23.3737C31.6346 23.3962 31.7307 23.3532 31.7757 23.2714C32.5635 21.8473 33.8464 18.5775 29.9915 17.3601C29.9915 17.3601 32.7108 16.0362 35.0045 17.5852C35.0987 17.6506 35.2214 17.6465 35.3135 17.5852C35.4076 17.5217 35.4547 17.4071 35.4301 17.2946C34.7406 14.0331 32.4898 11.7066 28.3914 12.7195C28.3239 12.7358 28.2503 12.7154 28.2012 12.6663C28.148 12.6171 28.1254 12.5496 28.1418 12.4801C28.3894 11.3977 29.8974 8.47987 34.3068 9.95922C34.3662 9.97968 34.4337 9.95717 34.4705 9.90397C34.5073 9.84873 34.4992 9.77916 34.4582 9.73005C33.118 8.24865 28.3321 3.45047 23.2516 7.88035C23.2147 7.91309 23.1656 7.92332 23.1227 7.90695C23.0797 7.89467 23.0469 7.85579 23.0408 7.80873C22.9017 6.91048 22.7175 3.9927 25.6578 3.57938C25.709 3.57119 25.7478 3.53027 25.7499 3.47912C25.754 3.42796 25.7171 3.38499 25.6721 3.37067C23.9472 2.94098 19.014 2.06933 18.1587 5.89355C18.1485 5.94471 18.1158 5.98563 18.0707 6.01018C18.0278 6.03269 17.9705 6.03678 17.9255 6.01632C16.6098 5.48228 15.9264 4.41011 16.4911 3.11491C16.5055 3.07807 16.4973 3.03511 16.4686 3.00646C16.4379 2.97986 16.395 2.97372 16.3602 2.99418C15.198 3.61212 14.6026 4.77636 14.8706 6.09817C14.8829 6.14727 14.8624 6.20252 14.8235 6.2373C14.1094 6.80204 12.5933 6.39076 12.3498 5.13444C11.5108 7.28902 12.7815 7.33199 14.2015 7.02916C14.1463 7.06599 14.091 7.09463 14.0378 7.12533C14.0931 7.111 14.1197 7.10896 14.1197 7.10896C11.2162 8.50237 7.61296 11.3158 7.61296 11.3158C7.98127 11.637 8.78744 11.7455 8.78744 11.7455C6.01493 13.0448 3.72531 16.0362 3.72531 16.0362C4.09771 14.8126 5.65891 12.9752 7.29786 12.036C6.99503 11.9624 6.14588 11.6023 6.14588 11.6023C8.4662 9.41495 10.8929 8.23024 12.448 7.63481ZM10.2095 21.3316C10.9645 21.393 11.6418 21.4687 12.0674 21.5219C12.0797 21.5219 12.0899 21.5342 12.0899 21.5485C12.0899 21.5608 12.0776 21.571 12.0633 21.571C10.5205 21.5281 8.36389 21.3807 7.36947 21.6017C7.33673 21.6079 7.31014 21.6365 7.30809 21.6733C7.28149 21.8902 7.19555 22.6821 7.26103 23.0483C7.35106 23.521 7.50247 23.9855 7.6989 24.364C7.7255 24.0305 7.78893 23.742 7.86668 23.4985C8.05493 22.8928 8.32297 22.5675 8.32297 22.5675C8.33729 22.5511 8.35366 22.545 8.37412 22.5409C8.39254 22.5409 8.40891 22.5491 8.42323 22.5614C8.85087 22.9685 9.08822 23.4391 9.21304 23.8811C9.36036 24.4029 9.35627 24.8878 9.33376 25.1702C9.65296 24.9103 9.87394 24.6832 10.0335 24.4724C10.3527 24.0571 10.4325 23.7154 10.5737 23.3675C11.0873 22.1214 12.1165 21.6079 13.1498 21.5587C13.8332 21.526 14.5248 21.702 15.0629 22.0089C15.2287 22.101 15.3801 22.2094 15.5151 22.324C16.6753 21.3316 17.0866 19.9362 17.2257 19.2057C17.2318 19.1709 17.2646 19.1443 17.3014 19.1443C17.3403 19.1443 17.3689 19.173 17.3771 19.2098C17.7372 21.6406 17.1132 22.901 15.1427 23.8709C15.0629 23.9057 15.0138 23.9855 15.0036 24.0714C14.9975 24.1594 15.0384 24.2412 15.11 24.2944C15.6665 24.6668 16.3766 24.8571 17.1459 24.8878C19.1552 24.7282 20.9619 24.2187 21.8888 21.9189C21.9032 21.8902 21.9318 21.8779 21.9604 21.8861C21.9911 21.8943 22.0116 21.9271 22.0034 21.9557C20.61 28.8798 12.0531 23.9057 9.53837 28.8348C9.522 28.8634 9.53019 28.9003 9.55474 28.9228C9.58134 28.9432 9.61613 28.9453 9.64273 28.9269C11.0975 27.8997 13.1273 28.6363 13.1273 28.6363C11.9283 29.1069 11.6459 30.2446 11.6091 31.0467C11.607 31.1265 11.6561 31.196 11.7318 31.2124C11.8075 31.2329 11.8873 31.196 11.9201 31.1265C12.761 29.3995 14.8276 29.064 14.8276 29.064C13.0966 31.593 14.8072 33.3936 15.6338 34.0545C15.6931 34.0975 15.7709 34.1036 15.8343 34.0647C15.8957 34.0238 15.9264 33.9481 15.91 33.8765C15.6829 32.8473 15.689 31.9531 15.8527 31.1735C15.8466 31.1633 15.8425 31.149 15.8405 31.1387L15.8568 31.1633C16.6159 27.6173 20.6714 26.5513 20.6714 26.5513C17.5183 28.354 16.5975 30.308 16.6303 32.0083C20.6386 35.5645 30.988 33.2851 33.3267 26.7211C33.339 26.6864 33.3267 26.6495 33.296 26.6291C33.2674 26.6107 33.2244 26.6106 33.1978 26.6372C27.1781 33.3199 20.3788 29.1765 23.9022 22.7353C21.3568 31.9224 30.1982 31.1162 35.422 21.6345C35.4547 21.571 35.5222 21.5424 35.5897 21.5587C35.6573 21.5772 35.7043 21.6365 35.7043 21.7061C35.6941 34.2489 21.0806 37.8542 16.6712 32.5403C16.9843 34.8463 18.9117 36.563 18.9117 36.563C13.3503 37.0991 13.0434 31.1551 13.0434 31.1551C12.1636 31.7117 12.1042 32.8861 12.1308 33.4611C12.1329 33.5082 12.1063 33.5511 12.0633 33.5675C12.0183 33.588 11.9692 33.5736 11.9385 33.5368C10.0172 31.2124 11.3963 29.4098 11.3963 29.4098C9.87598 29.242 8.72606 30.353 8.26773 30.883C8.24113 30.9157 8.19611 30.9259 8.15928 30.9096C8.1204 30.8932 8.09994 30.8502 8.10608 30.8114C8.81404 26.4961 10.9523 25.4218 13.3728 25.1067C12.7426 24.7875 12.1636 24.3579 11.6357 23.8463C11.5681 23.7808 11.5477 23.6785 11.5866 23.5947C11.6234 23.5087 11.7093 23.4535 11.8034 23.4555C13.1518 23.5046 14.1729 23.2059 14.9381 22.7394C14.3938 22.5245 13.8496 22.459 13.3605 22.4897C12.6833 22.5348 12.094 22.7619 11.7093 23.0606C11.4924 23.2284 11.3369 23.4166 11.2776 23.6049C11.0382 24.4008 10.6105 24.9533 10.1522 25.338C9.27238 26.0766 8.27182 26.1789 8.27182 26.1789C8.22476 26.1871 8.17974 26.1625 8.15928 26.1196C8.13677 26.0766 8.14291 26.0255 8.17565 25.9927C8.52145 25.6326 8.6258 25.2029 8.62375 24.8039C8.62375 24.2924 8.44983 23.832 8.3598 23.6274C8.2309 23.8054 8.13677 24.008 8.0672 24.2187C7.87282 24.8039 7.87282 25.4075 7.87282 25.4075C7.87282 25.43 7.85645 25.4525 7.83395 25.4587C7.81144 25.4648 7.78484 25.4566 7.77051 25.4321C7.3838 24.7446 7.18941 24.0898 7.10757 23.5189C6.99912 22.7496 7.12598 21.3275 7.13417 21.2457C6.6165 21.1802 6.29116 21.1147 6.29116 21.1147C5.11054 20.1756 5.20876 19.0543 5.20876 19.0543C5.48498 19.9423 5.86966 20.552 6.40984 20.7382C7.83395 21.039 11.65 20.3904 11.65 20.3904C11.5763 18.5407 9.59362 18.0517 9.59362 18.0517C12.3436 18.3381 12.2454 20.8815 12.2454 20.8815C11.6132 21.1332 10.9093 21.2682 10.2095 21.3316ZM10.3139 12.8647C10.0867 12.5067 10.2545 12.2304 10.2545 12.2304C9.93328 12.1138 9.72457 11.9706 9.72457 11.9706C10.8008 12.3737 12.6587 11.9992 12.6587 11.9992C12.0408 12.6417 10.011 13.1205 8.96136 13.9901C9.59976 13.2023 10.3139 12.8647 10.3139 12.8647ZM9.86985 11.6145C9.86985 11.6145 13.6491 10.6119 15.2512 9.4129C15.2512 9.4129 14.9299 10.9475 13.6143 11.7557C13.6143 11.7557 14.1585 11.0314 14.1995 10.6078C12.8367 11.2687 11.3328 11.5184 9.86985 11.6145ZM3.71917 16.0383C3.71917 16.0383 3.98312 17.7366 5.12077 18.3729C5.12077 18.3729 6.67992 16.4884 6.95206 15.8807C6.95206 15.8807 6.20932 17.9637 5.19853 18.9683C4.21638 18.4323 3.56776 17.2885 3.71917 16.0383ZM17.6492 13.4786C17.6492 13.4786 17.727 12.2141 19.3537 11.7455C19.3537 11.7455 20.4709 11.9194 20.7246 13.4765C20.7246 13.4765 20.5077 14.7717 19.0611 16.3575C19.0611 16.3575 20.7512 13.2985 19.3537 12.4657C18.6089 12.4228 18.0646 12.8095 17.6492 13.4786ZM18.2078 17.7714C18.8831 17.802 19.4355 17.976 19.9 18.2236L19.014 17.266C20.2601 16.558 21.5246 16.5805 21.5246 16.5805L20.4606 16.2265C20.964 15.273 21.764 13.4029 21.764 13.4029C21.4387 12.0913 20.4606 10.4871 20.4606 10.4871C19.724 10.3418 18.4575 10.9536 18.4575 10.9536C19.8366 10.0554 20.7246 10.0186 20.7246 10.0186C22.3594 11.3179 22.5211 13.4029 22.5211 13.4029C22.0894 14.1906 21.1154 16.0362 21.1154 16.0362C22.1098 16.4925 22.5334 17.0593 22.5334 17.0593C21.2729 16.6542 19.7138 17.223 19.7138 17.223C20.61 18.334 20.6959 19.2446 20.6959 19.2446C20.2376 18.6041 18.8606 18.0455 18.1976 17.8205C18.1894 17.8184 18.1792 17.8041 18.1812 17.7918C18.1853 17.7816 18.1956 17.7714 18.2078 17.7714ZM4.74633 15.9462C5.23535 16.5253 5.99447 16.4127 5.6896 16.6828C5.34994 16.9795 5.0246 17.6895 5.0246 17.6895C5.45838 16.4045 4.90593 16.9038 4.74633 15.9462Z" fill="#D4D4D4"/>
</svg>
