<svg width="68" height="50" viewBox="0 0 95 70" fill="none" xmlns="http://www.w3.org/2000/svg">
<g clip-path="url(#clip0_356_964)">
<path fill-rule="evenodd" clip-rule="evenodd" d="M22.1847 52.7842C20.6459 53.6258 18.883 54.1041 17.0098 54.1041C11.0199 54.1041 6.15697 49.2139 6.15697 43.1905C6.15697 38.5362 9.06073 34.5586 13.1441 32.9909C11.3648 31.7546 10.198 29.689 10.198 27.3514C10.198 23.5709 13.2503 20.5014 17.0098 20.5014C19.4548 20.5014 21.6006 21.7996 22.8021 23.7472L44.3902 23.7622L49.9892 29.3894L24.5381 29.3729L24.5222 32.2741L27.3614 32.2743V32.2738C32.3881 32.2738 36.6213 35.7179 37.8525 40.3856C37.8525 40.3856 38.1807 41.5122 38.212 43.1905C38.324 49.213 33.3491 54.1041 27.3592 54.1041C25.486 54.1041 23.7231 53.6258 22.1847 52.7842ZM25.454 36.3377C26.9602 38.2115 27.8626 40.596 27.8626 43.1905C27.8626 45.6821 27.0305 47.9798 25.6307 49.8177C26.1827 49.963 26.7622 50.0405 27.3592 50.0405C31.1187 50.0405 34.1711 46.9713 34.1711 43.1905C34.1711 39.41 31.1187 36.3406 27.3592 36.3406V36.3382C27.3115 36.3379 26.5026 36.3379 25.454 36.3377ZM22.1847 47.6434C23.2048 46.4455 23.8216 44.89 23.8216 43.1905C23.8216 39.41 20.7692 36.3406 17.0098 36.3406C13.2503 36.3406 10.198 39.41 10.198 43.1905C10.198 46.9713 13.2503 50.0405 17.0098 50.0405C17.6071 50.0405 18.1863 49.963 18.7385 49.8177C17.3388 47.9798 16.5066 45.6821 16.5066 43.1905C16.5066 42.8694 16.5204 42.5516 16.5474 42.2375H20.6129C20.5698 42.549 20.5474 42.8672 20.5474 43.1905C20.5474 44.89 21.1642 46.4455 22.1847 47.6434ZM17.0098 24.536C15.4646 24.536 14.2101 25.7975 14.2101 27.3514C14.2101 28.9053 15.4646 30.1668 17.0098 30.1668C18.555 30.1668 19.8095 28.9053 19.8095 27.3514C19.8095 25.7975 18.555 24.536 17.0098 24.536ZM38.2542 17.5892H17.4912L0 -0.000244141L0.0028811 0.000228877L67.0236 -0.000244141V0.00362869C82.454 0.252595 94.9047 12.9269 94.9047 28.5025C94.9047 41.0407 87.1315 51.651 75.8724 55.4182L90.3245 69.9551H69.5309L41.9722 42.2375L51.6907 42.2218C52.8795 42.2267 53.9922 42.1005 55.0283 41.8658C61.0424 40.4287 65.5215 34.9875 65.5215 28.5025C65.5215 20.9224 59.4016 14.7682 51.8636 14.7682L35.4463 14.7653L38.2542 17.5892ZM25.3779 69.9539H4.61511L17.4915 57.0053H38.2542L25.3779 69.9539Z" fill="#D4D4D4"/>
</g>
<defs>
<clipPath id="clip0_356_964">
<rect width="95" height="70" fill="white"/>
</clipPath>
</defs>
</svg>
