<svg width="132" height="35" viewBox="0 0 132 35" fill="none" xmlns="http://www.w3.org/2000/svg">
<path d="M1.46627e-05 34.32V5.72205e-06H28.752C32.304 5.72205e-06 35.056 0.896006 37.008 2.68801C38.992 4.48001 39.984 7.20001 39.984 10.848C39.984 13.952 39.264 16.384 37.824 18.144C36.384 19.904 34.336 21.008 31.68 21.456L39.6 34.32H30.864L23.52 21.696H7.68001V34.32H1.46627e-05ZM27.84 6.24001H7.68001V15.408L27.84 15.456C29.248 15.456 30.32 15.104 31.056 14.4C31.824 13.696 32.208 12.512 32.208 10.848C32.208 9.15201 31.824 7.96801 31.056 7.29601C30.32 6.59201 29.248 6.24001 27.84 6.24001ZM56.262 34.32C52.966 34.32 50.39 33.392 48.534 31.536C46.678 29.68 45.75 27.232 45.75 24.192C45.75 20.992 46.726 18.448 48.678 16.56C47.366 14.864 46.71 12.704 46.71 10.08C46.71 7.04001 47.638 4.60801 49.494 2.78401C51.35 0.960006 53.926 0.0480051 57.222 0.0480051H76.134C79.462 0.0480051 82.038 0.960006 83.862 2.78401C85.718 4.60801 86.646 7.04001 86.646 10.08C86.646 12.704 85.99 14.864 84.678 16.56C86.63 18.416 87.606 20.96 87.606 24.192C87.606 27.232 86.678 29.68 84.822 31.536C82.998 33.392 80.422 34.32 77.094 34.32H56.262ZM58.71 13.872H74.646C77.174 13.872 78.438 12.592 78.438 10.032C78.438 7.60001 77.174 6.38401 74.646 6.38401H58.71C56.182 6.38401 54.918 7.60001 54.918 10.032C54.918 12.592 56.182 13.872 58.71 13.872ZM57.75 28.032H75.606C78.134 28.032 79.398 26.736 79.398 24.144C79.398 21.52 78.134 20.208 75.606 20.208H57.75C55.254 20.208 54.006 21.52 54.006 24.144C54.006 26.736 55.254 28.032 57.75 28.032ZM94.3125 34.32V28.08H119.801C122.841 28.08 124.361 26.784 124.361 24.192C124.361 21.6 122.841 20.304 119.801 20.304H94.3125V0.0480051H130.409V6.24001H101.753V14.064H121.289C124.617 14.064 127.193 14.96 129.017 16.752C130.873 18.544 131.801 21.024 131.801 24.192C131.801 27.36 130.873 29.84 129.017 31.632C127.193 33.424 124.617 34.32 121.289 34.32H94.3125Z" fill="white"/>
</svg>
