<svg width="40" height="40" viewBox="0 0 40 40" fill="none" xmlns="http://www.w3.org/2000/svg">
<g clip-path="url(#clip0_1022_600)">
<path fill-rule="evenodd" clip-rule="evenodd" d="M8.40417 13.2455C10.8171 8.90719 15.4486 5.96921 20.7607 5.96921C23.0919 5.96921 25.292 6.53499 27.231 7.5366L29.4478 5.31981C29.6224 5.14529 29.9053 5.14529 30.0799 5.31981L30.3926 5.63258L27.3777 8.64746C25.431 7.51935 23.1707 6.8733 20.7607 6.8733C15.8822 6.8733 11.6171 9.5206 9.32479 13.4557C9.01131 13.3828 8.70391 13.3127 8.40417 13.2455ZM10.2319 13.671C12.4006 10.1284 16.3066 7.76254 20.7607 7.76254C23.2514 7.76254 25.5706 8.50227 27.5105 9.7738L30.7113 6.57299L34.1806 10.0422L31.0011 13.2218C32.3241 15.1871 33.0966 17.5532 33.0966 20.0984C33.0966 24.8413 30.4141 28.9626 26.4848 31.0266C26.5766 26.9603 24.9872 20.8683 22.7124 18.5934C20.6618 16.5428 14.9483 14.8118 10.2319 13.671ZM23.6622 12.4151C23.1861 12.4151 22.7996 12.8015 22.7996 13.2776C22.7996 13.7536 23.1861 14.1402 23.6622 14.1402C24.1382 14.1402 24.5247 13.7536 24.5247 13.2776C24.5247 12.8015 24.1382 12.4151 23.6622 12.4151ZM29.9698 9.29701C29.4937 9.29701 29.1072 9.68353 29.1072 10.1596C29.1072 10.6356 29.4937 11.0221 29.9698 11.0221C30.4458 11.0221 30.8324 10.6356 30.8324 10.1596C30.8324 9.68353 30.4458 9.29701 29.9698 9.29701ZM24.1068 17.2815C23.6307 17.2815 23.2443 17.668 23.2443 18.1441C23.2443 18.6201 23.6307 19.0066 24.1068 19.0066C24.5828 19.0066 24.9693 18.6201 24.9693 18.1441C24.9693 17.668 24.5828 17.2815 24.1068 17.2815ZM28.4435 12.0416C27.2853 12.0416 26.3449 12.9819 26.3449 14.1402C26.3449 15.2984 27.2853 16.2387 28.4435 16.2387C29.6017 16.2387 30.5421 15.2984 30.5421 14.1402C30.5421 12.9819 29.6017 12.0416 28.4435 12.0416ZM26.4204 32.0528C30.8914 29.9303 33.9858 25.3729 33.9858 20.0984C33.9858 17.6333 33.31 15.3249 32.1335 13.3485L35.1211 10.361L35.4338 10.6737C35.6084 10.8482 35.6084 11.1313 35.4338 11.3058L33.25 13.4896C34.2968 15.4621 34.8899 17.7115 34.8899 20.0984C34.8899 25.9566 31.3169 30.987 26.233 33.1271C26.3162 32.8024 26.3783 32.4419 26.4204 32.0528Z" fill="#D4D4D4"/>
<path fill-rule="evenodd" clip-rule="evenodd" d="M30.7857 2.41952C31.0927 2.11254 31.5902 2.11258 31.8971 2.41953C33.3106 3.83303 37.0307 7.55311 38.4442 8.96661C38.7512 9.27356 38.7513 9.77113 38.4443 10.0781C37.9139 10.6085 37.1192 11.4032 36.5887 11.9336C36.2819 12.2405 35.7842 12.2405 35.4773 11.9336C34.0637 10.5201 30.3437 6.79999 28.9302 5.38649C28.6232 5.07954 28.6233 4.5819 28.9302 4.27506C29.4606 3.74458 30.2554 2.94986 30.7857 2.41952ZM31.785 3.56486C31.6674 3.44717 31.5078 3.38115 31.3414 3.38121C31.175 3.3812 31.0155 3.44719 30.8978 3.56489L30.0797 4.383C29.962 4.50069 29.8959 4.6603 29.896 4.82659C29.896 4.99295 29.962 5.1525 30.0797 5.27019L35.5936 10.7841C35.7112 10.9017 35.8708 10.9678 36.0372 10.9678C36.2034 10.9678 36.363 10.9017 36.4807 10.784L37.2988 9.96589C37.4165 9.84819 37.4825 9.68875 37.4826 9.52239C37.4826 9.35597 37.4166 9.19639 37.2989 9.07876L31.785 3.56486Z" fill="#D4D4D4"/>
<path fill-rule="evenodd" clip-rule="evenodd" d="M5.29882 17.8483C4.94946 16.2744 4.69439 14.9543 4.54981 14.1726L9.29685 18.9196L5.29882 17.8483ZM9.9257 18.2908L5.17866 13.5437C5.96054 13.6882 7.28049 13.9433 8.85444 14.2927L9.9257 18.2908ZM9.83458 14.5153C10.7094 14.7184 11.6385 14.9467 12.5808 15.1976L14.6849 23.0499L11.1833 19.5483L9.83458 14.5153ZM13.5743 15.4696C14.5219 15.7366 15.4682 16.0254 16.3718 16.3337L19.4477 27.8128L15.9424 24.3075L13.5743 15.4696ZM17.3897 16.6966C19.3282 17.4206 20.9724 18.2379 21.8561 19.1215C24.5462 21.8116 26.1646 30.4698 24.6531 33.0182L20.7053 29.0703L17.3897 16.6966ZM20.0764 29.6992L24.0243 33.647C21.4759 35.1585 12.8177 33.5401 10.1276 30.85C9.24396 29.9664 8.42667 28.3221 7.70272 26.3837L20.0764 29.6992ZM7.33974 25.3658C7.03145 24.4621 6.74265 23.5158 6.47564 22.5682L15.3136 24.9363L18.8189 28.4417L7.33974 25.3658ZM6.2037 21.5747C5.95281 20.6324 5.72446 19.7034 5.52142 18.8285L10.5544 20.1772L14.056 23.6788L6.2037 21.5747Z" fill="#D4D4D4"/>
</g>
<defs>
<clipPath id="clip0_1022_600">
<rect width="40" height="40" fill="white"/>
</clipPath>
</defs>
</svg>
